  0
SECTION
  2
HEADER
  9
$ACADVER
  1
AC1024
  9
$ACADMAINTVER
 70
     6
  9
$DWGCODEPAGE
  3
UNDEFINED
  9
$INSBASE
 10
0.0
 20
0.0
 30
0.0
  9
$EXTMIN
 10
1.000000000000000E+20
 20
1.000000000000000E+20
 30
1.000000000000000E+20
  9
$EXTMAX
 10
-1.000000000000000E+20
 20
-1.000000000000000E+20
 30
-1.000000000000000E+20
  9
$LIMMIN
 10
0.0
 20
0.0
  9
$LIMMAX
 10
12.0
 20
9.0
  9
$ORTHOMODE
 70
     0
  9
$REGENMODE
 70
     1
  9
$FILLMODE
 70
     1
  9
$QTEXTMODE
 70
     0
  9
$MIRRTEXT
 70
     1
  9
$LTSCALE
 40
1.0
  9
$ATTMODE
 70
     1
  9
$TEXTSIZE
 40
0.2
  9
$TRACEWID
 40
0.05
  9
$TEXTSTYLE
  7
Standard
  9
$CLAYER
  8
0
  9
$CELTYPE
  6
ByLayer
  9
$CECOLOR
 62
   256
  9
$CELTSCALE
 40
1.0
  9
$DISPSILH
 70
     0
  9
$DIMSCALE
 40
1.0
  9
$DIMASZ
 40
0.18
  9
$DIMEXO
 40
0.0625
  9
$DIMDLI
 40
0.38
  9
$DIMRND
 40
0.0
  9
$DIMDLE
 40
0.0
  9
$DIMEXE
 40
0.18
  9
$DIMTP
 40
0.0
  9
$DIMTM
 40
0.0
  9
$DIMTXT
 40
0.18
  9
$DIMCEN
 40
0.09
  9
$DIMTSZ
 40
0.0
  9
$DIMTOL
 70
     0
  9
$DIMLIM
 70
     0
  9
$DIMTIH
 70
     1
  9
$DIMTOH
 70
     1
  9
$DIMSE1
 70
     0
  9
$DIMSE2
 70
     0
  9
$DIMTAD
 70
     0
  9
$DIMZIN
 70
     0
  9
$DIMBLK
  1

  9
$DIMASO
 70
     1
  9
$DIMSHO
 70
     1
  9
$DIMPOST
  1

  9
$DIMAPOST
  1

  9
$DIMALT
 70
     0
  9
$DIMALTD
 70
     2
  9
$DIMALTF
 40
25.4
  9
$DIMLFAC
 40
1.0
  9
$DIMTOFL
 70
     0
  9
$DIMTVP
 40
0.0
  9
$DIMTIX
 70
     0
  9
$DIMSOXD
 70
     0
  9
$DIMSAH
 70
     0
  9
$DIMBLK1
  1

  9
$DIMBLK2
  1

  9
$DIMSTYLE
  2
Standard
  9
$DIMCLRD
 70
     0
  9
$DIMCLRE
 70
     0
  9
$DIMCLRT
 70
     0
  9
$DIMTFAC
 40
1.0
  9
$DIMGAP
 40
0.09
  9
$DIMJUST
 70
     0
  9
$DIMSD1
 70
     0
  9
$DIMSD2
 70
     0
  9
$DIMTOLJ
 70
     1
  9
$DIMTZIN
 70
     0
  9
$DIMALTZ
 70
     0
  9
$DIMALTTZ
 70
     0
  9
$DIMUPT
 70
     0
  9
$DIMDEC
 70
     4
  9
$DIMTDEC
 70
     4
  9
$DIMALTU
 70
     2
  9
$DIMALTTD
 70
     2
  9
$DIMTXSTY
  7
Standard
  9
$DIMAUNIT
 70
     0
  9
$DIMADEC
 70
     0
  9
$DIMALTRND
 40
0.0
  9
$DIMAZIN
 70
     0
  9
$DIMDSEP
 70
    46
  9
$DIMATFIT
 70
     3
  9
$DIMFRAC
 70
     0
  9
$DIMLDRBLK
  1

  9
$DIMLUNIT
 70
     2
  9
$DIMLWD
 70
    -2
  9
$DIMLWE
 70
    -2
  9
$DIMTMOVE
 70
     0
  9
$DIMFXL
 40
1.0
  9
$DIMFXLON
 70
     0
  9
$DIMJOGANG
 40
0.7853981633974483
  9
$DIMTFILL
 70
     0
  9
$DIMTFILLCLR
 70
     0
  9
$DIMARCSYM
 70
     0
  9
$DIMLTYPE
  6

  9
$DIMLTEX1
  6

  9
$DIMLTEX2
  6

  9
$DIMTXTDIRECTION
 70
     0
  9
$LUNITS
 70
     2
  9
$LUPREC
 70
     4
  9
$SKETCHINC
 40
0.1
  9
$FILLETRAD
 40
0.5
  9
$AUNITS
 70
     0
  9
$AUPREC
 70
     0
  9
$MENU
  1
.
  9
$ELEVATION
 40
0.0
  9
$PELEVATION
 40
0.0
  9
$THICKNESS
 40
0.0
  9
$LIMCHECK
 70
     0
  9
$CHAMFERA
 40
0.5
  9
$CHAMFERB
 40
0.5
  9
$CHAMFERC
 40
1.0
  9
$CHAMFERD
 40
0.0
  9
$SKPOLY
 70
     0
  9
$TDCREATE
 40
2458873.031527778
  9
$TDUCREATE
 40
2458873.323194445
  9
$TDUPDATE
 40
2458873.031527778
  9
$TDUUPDATE
 40
2458873.323194445
  9
$TDINDWG
 40
0.0000000116
  9
$TDUSRTIMER
 40
0.0000000116
  9
$USRTIMER
 70
     1
  9
$ANGBASE
 50
0.0
  9
$ANGDIR
 70
     0
  9
$PDMODE
 70
     0
  9
$PDSIZE
 40
0.0
  9
$PLINEWID
 40
0.0
  9
$SPLFRAME
 70
     0
  9
$SPLINETYPE
 70
     6
  9
$SPLINESEGS
 70
     8
  9
$HANDSEED
  5
C3
  9
$SURFTAB1
 70
     6
  9
$SURFTAB2
 70
     6
  9
$SURFTYPE
 70
     6
  9
$SURFU
 70
     6
  9
$SURFV
 70
     6
  9
$UCSBASE
  2

  9
$UCSNAME
  2

  9
$UCSORG
 10
0.0
 20
0.0
 30
0.0
  9
$UCSXDIR
 10
1.0
 20
0.0
 30
0.0
  9
$UCSYDIR
 10
0.0
 20
1.0
 30
0.0
  9
$UCSORTHOREF
  2

  9
$UCSORTHOVIEW
 70
     0
  9
$UCSORGTOP
 10
0.0
 20
0.0
 30
0.0
  9
$UCSORGBOTTOM
 10
0.0
 20
0.0
 30
0.0
  9
$UCSORGLEFT
 10
0.0
 20
0.0
 30
0.0
  9
$UCSORGRIGHT
 10
0.0
 20
0.0
 30
0.0
  9
$UCSORGFRONT
 10
0.0
 20
0.0
 30
0.0
  9
$UCSORGBACK
 10
0.0
 20
0.0
 30
0.0
  9
$PUCSBASE
  2

  9
$PUCSNAME
  2

  9
$PUCSORG
 10
0.0
 20
0.0
 30
0.0
  9
$PUCSXDIR
 10
1.0
 20
0.0
 30
0.0
  9
$PUCSYDIR
 10
0.0
 20
1.0
 30
0.0
  9
$PUCSORTHOREF
  2

  9
$PUCSORTHOVIEW
 70
     0
  9
$PUCSORGTOP
 10
0.0
 20
0.0
 30
0.0
  9
$PUCSORGBOTTOM
 10
0.0
 20
0.0
 30
0.0
  9
$PUCSORGLEFT
 10
0.0
 20
0.0
 30
0.0
  9
$PUCSORGRIGHT
 10
0.0
 20
0.0
 30
0.0
  9
$PUCSORGFRONT
 10
0.0
 20
0.0
 30
0.0
  9
$PUCSORGBACK
 10
0.0
 20
0.0
 30
0.0
  9
$USERI1
 70
     0
  9
$USERI2
 70
     0
  9
$USERI3
 70
     0
  9
$USERI4
 70
     0
  9
$USERI5
 70
     0
  9
$USERR1
 40
0.0
  9
$USERR2
 40
0.0
  9
$USERR3
 40
0.0
  9
$USERR4
 40
0.0
  9
$USERR5
 40
0.0
  9
$WORLDVIEW
 70
     1
  9
$SHADEDGE
 70
     3
  9
$SHADEDIF
 70
    70
  9
$TILEMODE
 70
     1
  9
$MAXACTVP
 70
    64
  9
$PINSBASE
 10
0.0
 20
0.0
 30
0.0
  9
$PLIMCHECK
 70
     0
  9
$PEXTMIN
 10
1.000000000000000E+20
 20
1.000000000000000E+20
 30
1.000000000000000E+20
  9
$PEXTMAX
 10
-1.000000000000000E+20
 20
-1.000000000000000E+20
 30
-1.000000000000000E+20
  9
$PLIMMIN
 10
0.0
 20
0.0
  9
$PLIMMAX
 10
12.0
 20
9.0
  9
$UNITMODE
 70
     0
  9
$VISRETAIN
 70
     1
  9
$PLINEGEN
 70
     0
  9
$PSLTSCALE
 70
     1
  9
$TREEDEPTH
 70
  3020
  9
$CMLSTYLE
  2
Standard
  9
$CMLJUST
 70
     0
  9
$CMLSCALE
 40
1.0
  9
$PROXYGRAPHICS
 70
     1
  9
$MEASUREMENT
 70
     0
  9
$CELWEIGHT
370
    -1
  9
$ENDCAPS
280
     0
  9
$JOINSTYLE
280
     0
  9
$LWDISPLAY
290
     1
  9
$INSUNITS
 70
     0
  9
$HYPERLINKBASE
  1

  9
$STYLESHEET
  1

  9
$XEDIT
290
     1
  9
$CEPSNTYPE
380
     0
  9
$PSTYLEMODE
290
     1
  9
$FINGERPRINTGUID
  2
{8FEED99B-8A50-ED39-8DC6-15BA867A8A1C}
  9
$VERSIONGUID
  2
{FAEB1C32-E019-11D5-929B-00C0DF256EC4}
  9
$EXTNAMES
290
     1
  9
$PSVPSCALE
 40
0.0
  9
$OLESTARTUP
290
     0
  9
$SORTENTS
280
   127
  9
$INDEXCTL
280
     0
  9
$HIDETEXT
280
     1
  9
$XCLIPFRAME
280
     2
  9
$HALOGAP
280
     0
  9
$OBSCOLOR
 70
   257
  9
$OBSLTYPE
280
     0
  9
$INTERSECTIONDISPLAY
280
     0
  9
$INTERSECTIONCOLOR
 70
   257
  9
$DIMASSOC
280
     2
  9
$PROJECTNAME
  1

  9
$CAMERADISPLAY
290
     0
  9
$LENSLENGTH
 40
50.0
  9
$CAMERAHEIGHT
 40
0.0
  9
$STEPSPERSEC
 40
2.0
  9
$STEPSIZE
 40
6.0
  9
$3DDWFPREC
 40
2.0
  9
$PSOLWIDTH
 40
0.25
  9
$PSOLHEIGHT
 40
4.0
  9
$LOFTANG1
 40
1.570796326794897
  9
$LOFTANG2
 40
1.570796326794897
  9
$LOFTMAG1
 40
0.0
  9
$LOFTMAG2
 40
0.0
  9
$LOFTPARAM
 70
     7
  9
$LOFTNORMALS
280
     1
  9
$LATITUDE
 40
37.795
  9
$LONGITUDE
 40
-122.394
  9
$NORTHDIRECTION
 40
0.0
  9
$TIMEZONE
 70
 -8000
  9
$LIGHTGLYPHDISPLAY
280
     1
  9
$TILEMODELIGHTSYNCH
280
     1
  9
$CMATERIAL
347
3C
  9
$SOLIDHIST
280
     1
  9
$SHOWHIST
280
     1
  9
$DWFFRAME
280
     2
  9
$DGNFRAME
280
     2
  9
$REALWORLDSCALE
290
     1
  9
$INTERFERECOLOR
 62
   256
  9
$CSHADOW
280
     0
  9
$SHADOWPLANELOCATION
 40
0.0
  0
ENDSEC
  0
SECTION
  2
CLASSES
  0
CLASS
  1
ACDBDICTIONARYWDFLT
  2
AcDbDictionaryWithDefault
  3
ObjectDBX Classes
 90
        0
 91
        4
280
     0
281
     0
  0
CLASS
  1
VISUALSTYLE
  2
AcDbVisualStyle
  3
ObjectDBX Classes
 90
     4095
 91
        4
280
     0
281
     0
  0
CLASS
  1
MATERIAL
  2
AcDbMaterial
  3
ObjectDBX Classes
 90
     1153
 91
        4
280
     0
281
     0
  0
CLASS
  1
SUN
  2
AcDbSun
  3
SCENEOE
 90
     1024
 91
        4
280
     0
281
     0
  0
ENDSEC
  0
SECTION
  2
TABLES
  0
TABLE
  2
VPORT
  5
8
330
0
100
AcDbSymbolTable
 70
     1
  0
VPORT
  5
29
330
8
100
AcDbSymbolTableRecord
100
AcDbViewportTableRecord
  2
*Active
 70
     0
 10
0.0
 20
0.0
 11
1.0
 21
1.0
 12
0.0
 22
0.0
 13
0.0
 23
0.0
 14
0.5
 24
0.5
 15
0.5
 25
0.5
 16
0.0
 26
0.0
 36
1.0
 17
306.0
 27
-396.0
 37
0.0
 40
792.0
 41
0.7727272727272727
 42
50.0
 43
0.0
 44
0.0
 50
0.0
 51
0.0
 71
     0
 72
   100
 73
     1
 74
     3
 75
     0
 76
     0
 77
     0
 78
     0
281
     0
 65
     1
110
0.0
120
0.0
130
0.0
111
1.0
121
0.0
131
0.0
112
0.0
122
1.0
132
0.0
 79
     0
146
0.0
 60
     3
 61
     5
292
     1
282
     1
141
0.0
142
0.0
 63
   250
361
3F
  0
ENDTAB
  0
TABLE
  2
LTYPE
  5
5
330
0
100
AcDbSymbolTable
 70
     1
  0
LTYPE
  5
14
330
5
100
AcDbSymbolTableRecord
100
AcDbLinetypeTableRecord
  2
ByBlock
 70
     0
  3

 72
    65
 73
     0
 40
0.0
  0
LTYPE
  5
15
330
5
100
AcDbSymbolTableRecord
100
AcDbLinetypeTableRecord
  2
ByLayer
 70
     0
  3

 72
    65
 73
     0
 40
0.0
  0
LTYPE
  5
16
330
5
100
AcDbSymbolTableRecord
100
AcDbLinetypeTableRecord
  2
Continuous
 70
     0
  3
Solid line
 72
    65
 73
     0
 40
0.0
  0
ENDTAB
  0
TABLE
  2
LAYER
  5
2
330
0
100
AcDbSymbolTable
 70
     2
  0
LAYER
  5
10
330
2
100
AcDbSymbolTableRecord
100
AcDbLayerTableRecord
  2
0
 70
     0
 62
     7
  6
Continuous
370
    -3
390
F
347
3E
  0
LAYER
  5
40
330
2
100
AcDbSymbolTableRecord
100
AcDbLayerTableRecord
  2
Layer 1
 70
     0
 62
     7
  6
Continuous
370
    -3
390
F
347
3E
  0
ENDTAB
  0
TABLE
  2
STYLE
  5
3
330
0
100
AcDbSymbolTable
 70
     1
  0
STYLE
  5
11
330
3
100
AcDbSymbolTableRecord
100
AcDbTextStyleTableRecord
  2
Standard
 70
     0
 40
0.0
 41
1.0
 50
0.0
 71
     0
 42
0.2
  3
txt
  4

  0
ENDTAB
  0
TABLE
  2
VIEW
  5
6
330
0
100
AcDbSymbolTable
 70
     0
  0
ENDTAB
  0
TABLE
  2
UCS
  5
7
330
0
100
AcDbSymbolTable
 70
     0
  0
ENDTAB
  0
TABLE
  2
APPID
  5
9
330
0
100
AcDbSymbolTable
 70
     1
  0
APPID
  5
12
330
9
100
AcDbSymbolTableRecord
100
AcDbRegAppTableRecord
  2
ACAD
 70
     0
  0
ENDTAB
  0
TABLE
  2
DIMSTYLE
  5
A
330
0
100
AcDbSymbolTable
 70
     1
100
AcDbDimStyleTable
  0
DIMSTYLE
105
27
330
A
100
AcDbSymbolTableRecord
100
AcDbDimStyleTableRecord
  2
Standard
 70
     0
178
     0
340
11
  0
ENDTAB
  0
TABLE
  2
BLOCK_RECORD
  5
1
330
0
100
AcDbSymbolTable
 70
     2
  0
BLOCK_RECORD
  5
1F
330
1
100
AcDbSymbolTableRecord
100
AcDbBlockTableRecord
  2
*Model_Space
340
22
 70
     0
280
     1
281
     0
  0
BLOCK_RECORD
  5
1B
330
1
100
AcDbSymbolTableRecord
100
AcDbBlockTableRecord
  2
*Paper_Space
340
1E
 70
     0
280
     1
281
     0
  0
BLOCK_RECORD
  5
23
330
1
100
AcDbSymbolTableRecord
100
AcDbBlockTableRecord
  2
*Paper_Space0
340
26
 70
     0
280
     1
281
     0
  0
BLOCK_RECORD
  5
41
330
1
100
AcDbSymbolTableRecord
100
AcDbBlockTableRecord
  2
block 2
340
0
102
{BLKREFS
331
42
102
}
 70
     0
280
     1
281
     0
  0
ENDTAB
  0
ENDSEC
  0
SECTION
  2
BLOCKS
  0
BLOCK
  5
20
330
1F
100
AcDbEntity
  8
0
100
AcDbBlockBegin
  2
*Model_Space
 70
     0
 10
0.0
 20
0.0
 30
0.0
  3
*Model_Space
  1

  0
ENDBLK
  5
21
330
1F
100
AcDbEntity
  8
0
100
AcDbBlockEnd
  0
BLOCK
  5
1C
330
1B
100
AcDbEntity
 67
     1
  8
0
100
AcDbBlockBegin
  2
*Paper_Space
 70
     0
 10
0.0
 20
0.0
 30
0.0
  3
*Paper_Space
  1

  0
ENDBLK
  5
1D
330
1B
100
AcDbEntity
 67
     1
  8
0
100
AcDbBlockEnd
  0
BLOCK
  5
24
330
23
100
AcDbEntity
  8
0
100
AcDbBlockBegin
  2
*Paper_Space0
 70
     0
 10
0.0
 20
0.0
 30
0.0
  3
*Paper_Space0
  1

  0
ENDBLK
  5
25
330
23
100
AcDbEntity
  8
0
100
AcDbBlockEnd
  0
BLOCK
  5
43
330
41
100
AcDbEntity
  8
0
100
AcDbBlockBegin
  2
block 2
 70
     0
 10
0.0
 20
0.0
 30
0.0
  3
block 2
  1

  0
POLYLINE
  5
45
330
41
100
AcDbEntity
  8
Layer 1
 62
   177
420
  3027090
370
    18
100
AcDb2dPolyline
 66
     1
 10
0.0
 20
0.0
 30
0.0
  0
VERTEX
  5
46
330
45
100
AcDbEntity
  8
Layer 1
 62
   177
420
  3027090
370
    18
100
AcDbVertex
100
AcDb2dVertex
 10
193.8933026610248
 20
-328.3647755371567
 30
0.0
  0
VERTEX
  5
47
330
45
100
AcDbEntity
  8
Layer 1
 62
   177
420
  3027090
370
    18
100
AcDbVertex
100
AcDb2dVertex
 10
79.93752101245718
 20
-328.3647755371567
 30
0.0
  0
VERTEX
  5
48
330
45
100
AcDbEntity
  8
Layer 1
 62
   177
420
  3027090
370
    18
100
AcDbVertex
100
AcDb2dVertex
 10
22.95963018817474
 20
-405.2020643869455
 30
0.0
  0
VERTEX
  5
49
330
45
100
AcDbEntity
  8
Layer 1
 62
   177
420
  3027090
370
    18
100
AcDbVertex
100
AcDb2dVertex
 10
136.9154118367414
 20
-561.5231118527445
 30
0.0
  0
VERTEX
  5
4A
330
45
100
AcDbEntity
  8
Layer 1
 62
   177
420
  3027090
370
    18
100
AcDbVertex
100
AcDb2dVertex
 10
250.8711934853054
 20
-405.2020643869455
 30
0.0
  0
VERTEX
  5
4B
330
45
100
AcDbEntity
  8
Layer 1
 62
   177
420
  3027090
370
    18
100
AcDbVertex
100
AcDb2dVertex
 10
193.8933026610248
 20
-328.3647755371567
 30
0.0
  0
SEQEND
  5
4C
330
45
100
AcDbEntity
  8
Layer 1
 62
   177
420
  3027090
370
    18
  0
POLYLINE
  5
4D
330
41
100
AcDbEntity
  8
Layer 1
 62
   177
420
  3027090
370
    18
100
AcDb2dPolyline
 66
     1
 10
0.0
 20
0.0
 30
0.0
  0
VERTEX
  5
4E
330
4D
100
AcDbEntity
  8
Layer 1
 62
   177
420
  3027090
370
    18
100
AcDbVertex
100
AcDb2dVertex
 10
35.24233382657349
 20
-409.4855987391329
 30
0.0
  0
VERTEX
  5
4F
330
4D
100
AcDbEntity
  8
Layer 1
 62
   177
420
  3027090
370
    18
100
AcDbVertex
100
AcDb2dVertex
 10
86.07884718359401
 20
-340.9302234256602
 30
0.0
  0
VERTEX
  5
50
330
4D
100
AcDbEntity
  8
Layer 1
 62
   177
420
  3027090
370
    18
100
AcDbVertex
100
AcDb2dVertex
 10
187.7519764898861
 20
-340.9302234256602
 30
0.0
  0
VERTEX
  5
51
330
4D
100
AcDbEntity
  8
Layer 1
 62
   177
420
  3027090
370
    18
100
AcDbVertex
100
AcDb2dVertex
 10
238.5884898469085
 20
-409.4855987391329
 30
0.0
  0
VERTEX
  5
52
330
4D
100
AcDbEntity
  8
Layer 1
 62
   177
420
  3027090
370
    18
100
AcDbVertex
100
AcDb2dVertex
 10
136.9154118367414
 20
-548.9576639642419
 30
0.0
  0
VERTEX
  5
53
330
4D
100
AcDbEntity
  8
Layer 1
 62
   177
420
  3027090
370
    18
100
AcDbVertex
100
AcDb2dVertex
 10
35.24233382657349
 20
-409.4855987391329
 30
0.0
  0
SEQEND
  5
54
330
4D
100
AcDbEntity
  8
Layer 1
 62
   177
420
  3027090
370
    18
  0
POLYLINE
  5
55
330
41
100
AcDbEntity
  8
Layer 1
 62
   177
420
  3027090
370
    18
100
AcDb2dPolyline
 66
     1
 10
0.0
 20
0.0
 30
0.0
  0
VERTEX
  5
56
330
55
100
AcDbEntity
  8
Layer 1
 62
   177
420
  3027090
370
    18
100
AcDbVertex
100
AcDb2dVertex
 10
136.9154114263738
 20
-527.0539778452658
 30
0.0
  0
VERTEX
  5
57
330
55
100
AcDbEntity
  8
Layer 1
 62
   177
420
  3027090
370
    18
100
AcDbVertex
100
AcDb2dVertex
 10
53.56027981182433
 20
-412.7099546789941
 30
0.0
  0
VERTEX
  5
58
330
55
100
AcDbEntity
  8
Layer 1
 62
   177
420
  3027090
370
    18
100
AcDbVertex
100
AcDb2dVertex
 10
95.23784561909724
 20
-356.5058662957672
 30
0.0
  0
VERTEX
  5
59
330
55
100
AcDbEntity
  8
Layer 1
 62
   177
420
  3027090
370
    18
100
AcDbVertex
100
AcDb2dVertex
 10
178.5929772336458
 20
-356.5058662957663
 30
0.0
  0
VERTEX
  5
5A
330
55
100
AcDbEntity
  8
Layer 1
 62
   177
420
  3027090
370
    18
100
AcDbVertex
100
AcDb2dVertex
 10
220.270543040926
 20
-412.7099546789941
 30
0.0
  0
VERTEX
  5
5B
330
55
100
AcDbEntity
  8
Layer 1
 62
   177
420
  3027090
370
    18
100
AcDbVertex
100
AcDb2dVertex
 10
136.9154114263738
 20
-527.0539778452658
 30
0.0
  0
SEQEND
  5
5C
330
55
100
AcDbEntity
  8
Layer 1
 62
   177
420
  3027090
370
    18
  0
POLYLINE
  5
5D
330
41
100
AcDbEntity
  8
Layer 1
 62
   177
420
  3027090
370
    35
100
AcDb2dPolyline
 66
     1
 10
0.0
 20
0.0
 30
0.0
  0
VERTEX
  5
5E
330
5D
100
AcDbEntity
  8
Layer 1
 62
   177
420
  3027090
370
    35
100
AcDbVertex
100
AcDb2dVertex
 10
127.7639605815593
 20
-443.7319187291941
 30
0.0
  0
VERTEX
  5
5F
330
5D
100
AcDbEntity
  8
Layer 1
 62
   177
420
  3027090
370
    35
100
AcDbVertex
100
AcDb2dVertex
 10
86.75553589145875
 20
-458.2461929004385
 30
0.0
  0
VERTEX
  5
60
330
5D
100
AcDbEntity
  8
Layer 1
 62
   177
420
  3027090
370
    35
100
AcDbVertex
100
AcDb2dVertex
 10
53.56027981182433
 20
-412.7099546789941
 30
0.0
  0
VERTEX
  5
61
330
5D
100
AcDbEntity
  8
Layer 1
 62
   177
420
  3027090
370
    35
100
AcDbVertex
100
AcDb2dVertex
 10
113.6059693615562
 20
-401.679065260907
 30
0.0
  0
VERTEX
  5
62
330
5D
100
AcDbEntity
  8
Layer 1
 62
   177
420
  3027090
370
    35
100
AcDbVertex
100
AcDb2dVertex
 10
127.7639605815593
 20
-443.7319187291941
 30
0.0
  0
SEQEND
  5
63
330
5D
100
AcDbEntity
  8
Layer 1
 62
   177
420
  3027090
370
    35
  0
POLYLINE
  5
64
330
41
100
AcDbEntity
  8
Layer 1
 62
   177
420
  3027090
370
    18
100
AcDb2dPolyline
 66
     1
 10
0.0
 20
0.0
 30
0.0
  0
VERTEX
  5
65
330
64
100
AcDbEntity
  8
Layer 1
 62
   177
420
  3027090
370
    18
100
AcDbVertex
100
AcDb2dVertex
 10
220.270543040926
 20
-412.7099546789941
 30
0.0
  0
VERTEX
  5
66
330
64
100
AcDbEntity
  8
Layer 1
 62
   177
420
  3027090
370
    18
100
AcDbVertex
100
AcDb2dVertex
 10
185.8486121680326
 20
-459.9289079086302
 30
0.0
  0
VERTEX
  5
67
330
64
100
AcDbEntity
  8
Layer 1
 62
   177
420
  3027090
370
    18
100
AcDbVertex
100
AcDb2dVertex
 10
129.6187274180875
 20
-445.8816550629999
 30
0.0
  0
VERTEX
  5
68
330
64
100
AcDbEntity
  8
Layer 1
 62
   177
420
  3027090
370
    18
100
AcDbVertex
100
AcDb2dVertex
 10
113.6059693615562
 20
-401.679065260907
 30
0.0
  0
VERTEX
  5
69
330
64
100
AcDbEntity
  8
Layer 1
 62
   177
420
  3027090
370
    18
100
AcDbVertex
100
AcDb2dVertex
 10
143.1026993373553
 20
-356.5058662957663
 30
0.0
  0
VERTEX
  5
6A
330
64
100
AcDbEntity
  8
Layer 1
 62
   177
420
  3027090
370
    18
100
AcDbVertex
100
AcDb2dVertex
 10
178.5929772336458
 20
-356.5058662957663
 30
0.0
  0
VERTEX
  5
6B
330
64
100
AcDbEntity
  8
Layer 1
 62
   177
420
  3027090
370
    18
100
AcDbVertex
100
AcDb2dVertex
 10
220.270543040926
 20
-412.7099546789941
 30
0.0
  0
SEQEND
  5
6C
330
64
100
AcDbEntity
  8
Layer 1
 62
   177
420
  3027090
370
    18
  0
POLYLINE
  5
6D
330
41
100
AcDbEntity
  8
Layer 1
 62
   177
420
  3027090
370
    35
100
AcDb2dPolyline
 66
     1
 10
0.0
 20
0.0
 30
0.0
  0
VERTEX
  5
6E
330
6D
100
AcDbEntity
  8
Layer 1
 62
   177
420
  3027090
370
    35
100
AcDbVertex
100
AcDb2dVertex
 10
157.6730438404738
 20
-498.5792918162151
 30
0.0
  0
VERTEX
  5
6F
330
6D
100
AcDbEntity
  8
Layer 1
 62
   177
420
  3027090
370
    35
100
AcDbVertex
100
AcDb2dVertex
 10
129.6187274180875
 20
-445.8816550629999
 30
0.0
  0
VERTEX
  5
70
330
6D
100
AcDbEntity
  8
Layer 1
 62
   177
420
  3027090
370
    35
100
AcDbVertex
100
AcDb2dVertex
 10
185.8486121680326
 20
-459.9289079086302
 30
0.0
  0
VERTEX
  5
71
330
6D
100
AcDbEntity
  8
Layer 1
 62
   177
420
  3027090
370
    35
100
AcDbVertex
100
AcDb2dVertex
 10
157.6730438404738
 20
-498.5792918162151
 30
0.0
  0
SEQEND
  5
72
330
6D
100
AcDbEntity
  8
Layer 1
 62
   177
420
  3027090
370
    35
  0
SPLINE
  5
73
330
41
100
AcDbEntity
  8
Layer 1
 62
   240
420
 15539236
370
    35
100
AcDbSpline
210
0.0
220
0.0
230
1.0
 70
    11
 71
     3
 72
    23
 73
    19
 74
     0
 42
0.0000000001
 43
0.0000000001
 12
1.0
 22
0.0
 32
0.0
 13
1.0
 23
0.0
 33
0.0
 40
0.0
 40
0.0
 40
0.0
 40
0.0
 40
1.0
 40
1.0
 40
1.0
 40
2.0
 40
2.0
 40
2.0
 40
3.0
 40
3.0
 40
3.0
 40
4.0
 40
4.0
 40
4.0
 40
5.0
 40
5.0
 40
5.0
 40
6.0
 40
6.0
 40
6.0
 40
6.0
 10
178.9676395510869
 20
-389.0681840709931
 30
0.0
 10
173.4271869768781
 20
-386.1186415886259
 30
0.0
 10
163.6562559753002
 20
-386.414068449174
 30
0.0
 10
156.8764868600665
 20
-398.6607408244818
 30
0.0
 10
150.0967177448365
 20
-386.414068449174
 30
0.0
 10
140.3257867432576
 20
-386.1186415886259
 30
0.0
 10
134.7853341690507
 20
-389.0681840709931
 30
0.0
 10
129.1158902081779
 20
-392.086400840908
 30
0.0
 10
128.0817540866874
 20
-406.1173448016598
 30
0.0
 10
136.8160401189534
 20
-417.630510638468
 30
0.0
 10
144.5636599348736
 20
-427.8430948670702
 30
0.0
 10
150.8195978288531
 20
-432.8277049062508
 30
0.0
 10
156.8765019999046
 20
-435.8968718970718
 30
0.0
 10
162.4491302315619
 20
-432.8277049062508
 30
0.0
 10
168.2182357260353
 20
-428.5837693848262
 30
0.0
 10
176.9369336011841
 20
-417.630510638468
 30
0.0
 10
185.9369388038904
 20
-406.3238468320815
 30
0.0
 10
184.6370835119596
 20
-392.086400840908
 30
0.0
 10
178.9676395510869
 20
-389.0681840709931
 30
0.0
  0
SPLINE
  5
74
330
41
100
AcDbEntity
  8
Layer 1
 62
   240
420
 15539236
370
    18
100
AcDbSpline
210
0.0
220
0.0
230
1.0
 70
    11
 71
     3
 72
    32
 73
    28
 74
     0
 42
0.0000000001
 43
0.0000000001
 12
1.0
 22
0.0
 32
0.0
 13
1.0
 23
0.0
 33
0.0
 40
0.0
 40
0.0
 40
0.0
 40
0.0
 40
1.0
 40
1.0
 40
1.0
 40
2.0
 40
2.0
 40
2.0
 40
3.0
 40
3.0
 40
3.0
 40
4.0
 40
4.0
 40
4.0
 40
5.0
 40
5.0
 40
5.0
 40
6.0
 40
6.0
 40
6.0
 40
7.0
 40
7.0
 40
7.0
 40
8.0
 40
8.0
 40
8.0
 40
9.0
 40
9.0
 40
9.0
 40
9.0
 10
148.0575937058857
 20
-564.4328578390741
 30
0.0
 10
148.0575937058857
 20
-564.4328578390741
 30
0.0
 10
144.567121532863
 20
-561.9081563478885
 30
0.0
 10
144.567121532863
 20
-561.9081563478885
 30
0.0
 10
144.567121532863
 20
-561.9081563478885
 30
0.0
 10
149.5953256653193
 20
-554.9553412450023
 30
0.0
 10
149.5953256653193
 20
-554.9553412450023
 30
0.0
 10
149.5953256653193
 20
-554.9553412450023
 30
0.0
 10
155.4103332658779
 20
-554.020961167851
 30
0.0
 10
155.4103332658779
 20
-554.020961167851
 30
0.0
 10
155.4103332658779
 20
-554.020961167851
 30
0.0
 10
165.7374345374301
 20
-561.4894790620092
 30
0.0
 10
165.7374345374301
 20
-561.4894790620092
 30
0.0
 10
165.9608378019511
 20
-562.7740478329979
 30
0.0
 10
166.2820819122462
 20
-564.7190423129668
 30
0.0
 10
166.7011668683153
 20
-567.3256855124891
 30
0.0
 10
166.7011668683153
 20
-567.3256855124891
 30
0.0
 10
161.6721473954785
 20
-574.2785006153754
 30
0.0
 10
161.6721473954785
 20
-574.2785006153754
 30
0.0
 10
161.6721473954785
 20
-574.2785006153754
 30
0.0
 10
151.3156938701941
 20
-566.7887838712995
 30
0.0
 10
151.3156938701941
 20
-566.7887838712995
 30
0.0
 10
151.3156938701941
 20
-566.7887838712995
 30
0.0
 10
153.6720275726111
 20
-563.5306837069911
 30
0.0
 10
153.6720275726111
 20
-563.5306837069911
 30
0.0
 10
153.6720275726111
 20
-563.5306837069911
 30
0.0
 10
148.0575937058857
 20
-564.4328578390741
 30
0.0
 10
148.0575937058857
 20
-564.4328578390741
 30
0.0
  0
POLYLINE
  5
75
330
41
100
AcDbEntity
  8
Layer 1
 62
   240
420
 15539236
370
    18
100
AcDb2dPolyline
 66
     1
 10
0.0
 20
0.0
 30
0.0
  0
VERTEX
  5
76
330
75
100
AcDbEntity
  8
Layer 1
 62
   240
420
 15539236
370
    18
100
AcDbVertex
100
AcDb2dVertex
 10
162.9750613250508
 20
-564.9416302371046
 30
0.0
  0
VERTEX
  5
77
330
75
100
AcDbEntity
  8
Layer 1
 62
   240
420
 15539236
370
    18
100
AcDbVertex
100
AcDb2dVertex
 10
153.0262779904951
 20
-557.7462513707342
 30
0.0
  0
VERTEX
  5
78
330
75
100
AcDbEntity
  8
Layer 1
 62
   240
420
 15539236
370
    18
100
AcDbVertex
100
AcDb2dVertex
 10
150.7335408378349
 20
-560.9171101142256
 30
0.0
  0
VERTEX
  5
79
330
75
100
AcDbEntity
  8
Layer 1
 62
   240
420
 15539236
370
    18
100
AcDbVertex
100
AcDb2dVertex
 10
160.6823241723905
 20
-568.112488980596
 30
0.0
  0
VERTEX
  5
7A
330
75
100
AcDbEntity
  8
Layer 1
 62
   240
420
 15539236
370
    18
100
AcDbVertex
100
AcDb2dVertex
 10
162.9750613250508
 20
-564.9416302371046
 30
0.0
  0
SEQEND
  5
7B
330
75
100
AcDbEntity
  8
Layer 1
 62
   240
420
 15539236
370
    18
  0
SPLINE
  5
7C
330
41
100
AcDbEntity
  8
Layer 1
 62
   240
420
 15539236
370
    18
100
AcDbSpline
210
0.0
220
0.0
230
1.0
 70
    11
 71
     3
 72
    35
 73
    31
 74
     0
 42
0.0000000001
 43
0.0000000001
 12
1.0
 22
0.0
 32
0.0
 13
1.0
 23
0.0
 33
0.0
 40
0.0
 40
0.0
 40
0.0
 40
0.0
 40
1.0
 40
1.0
 40
1.0
 40
2.0
 40
2.0
 40
2.0
 40
3.0
 40
3.0
 40
3.0
 40
4.0
 40
4.0
 40
4.0
 40
5.0
 40
5.0
 40
5.0
 40
6.0
 40
6.0
 40
6.0
 40
7.0
 40
7.0
 40
7.0
 40
8.0
 40
8.0
 40
8.0
 40
9.0
 40
9.0
 40
9.0
 40
10.0
 40
10.0
 40
10.0
 40
10.0
 10
166.3636159503912
 20
-553.7013477383189
 30
0.0
 10
166.3636159503912
 20
-553.7013477383189
 30
0.0
 10
160.6488952167492
 20
-554.6198286780309
 30
0.0
 10
160.6488952167492
 20
-554.6198286780309
 30
0.0
 10
160.6488952167492
 20
-554.6198286780309
 30
0.0
 10
165.6770993492028
 20
-547.6670135751447
 30
0.0
 10
165.6770993492028
 20
-547.6670135751447
 30
0.0
 10
168.2062852124873
 20
-547.1920778029453
 30
0.0
 10
170.0962442167074
 20
-546.8463734812067
 30
0.0
 10
171.3461610214836
 20
-546.6274545887863
 30
0.0
 10
171.3461610214836
 20
-546.6274545887863
 30
0.0
 10
173.062452524453
 20
-547.8688103195564
 30
0.0
 10
173.062452524453
 20
-547.8688103195564
 30
0.0
 10
173.062452524453
 20
-547.8688103195564
 30
0.0
 10
174.8007582177233
 20
-549.0812214667858
 30
0.0
 10
174.8007582177233
 20
-549.0812214667858
 30
0.0
 10
175.2858857446918
 20
-551.6772652413492
 30
0.0
 10
175.6438201721503
 20
-553.6340821568501
 30
0.0
 10
175.8713001385768
 20
-554.9508568729034
 30
0.0
 10
175.8713001385768
 20
-554.9508568729034
 30
0.0
 10
173.2842251082111
 20
-558.5289781369356
 30
0.0
 10
173.2842251082111
 20
-558.5289781369356
 30
0.0
 10
171.9943566247421
 20
-558.719767786195
 30
0.0
 10
170.0660766225919
 20
-559.0377505349643
 30
0.0
 10
167.4985697613811
 20
-559.4845570640027
 30
0.0
 10
167.4985697613811
 20
-559.4845570640027
 30
0.0
 10
164.0072822479779
 20
-556.9598555728189
 30
0.0
 10
164.0072822479779
 20
-556.9598555728189
 30
0.0
 10
164.0072822479779
 20
-556.9598555728189
 30
0.0
 10
166.3636159503912
 20
-553.7013477383189
 30
0.0
 10
166.3636159503912
 20
-553.7013477383189
 30
0.0
  0
POLYLINE
  5
7D
330
41
100
AcDbEntity
  8
Layer 1
 62
   240
420
 15539236
370
    18
100
AcDb2dPolyline
 66
     1
 10
0.0
 20
0.0
 30
0.0
  0
VERTEX
  5
7E
330
7D
100
AcDbEntity
  8
Layer 1
 62
   240
420
 15539236
370
    18
100
AcDbVertex
100
AcDb2dVertex
 10
172.2919558639733
 20
-552.6723881769176
 30
0.0
  0
VERTEX
  5
7F
330
7D
100
AcDbEntity
  8
Layer 1
 62
   240
420
 15539236
370
    18
100
AcDbVertex
100
AcDb2dVertex
 10
169.003688105553
 20
-550.2948556245865
 30
0.0
  0
VERTEX
  5
80
330
7D
100
AcDbEntity
  8
Layer 1
 62
   240
420
 15539236
370
    18
100
AcDbVertex
100
AcDb2dVertex
 10
166.6057720436838
 20
-553.6112526261677
 30
0.0
  0
VERTEX
  5
81
330
7D
100
AcDbEntity
  8
Layer 1
 62
   240
420
 15539236
370
    18
100
AcDbVertex
100
AcDb2dVertex
 10
169.8940398021041
 20
-555.9887851785006
 30
0.0
  0
VERTEX
  5
82
330
7D
100
AcDbEntity
  8
Layer 1
 62
   240
420
 15539236
370
    18
100
AcDbVertex
100
AcDb2dVertex
 10
172.2919558639733
 20
-552.6723881769176
 30
0.0
  0
SEQEND
  5
83
330
7D
100
AcDbEntity
  8
Layer 1
 62
   240
420
 15539236
370
    18
  0
SPLINE
  5
84
330
41
100
AcDbEntity
  8
Layer 1
 62
   240
420
 15539236
370
    18
100
AcDbSpline
210
0.0
220
0.0
230
1.0
 70
    11
 71
     3
 72
    44
 73
    40
 74
     0
 42
0.0000000001
 43
0.0000000001
 12
1.0
 22
0.0
 32
0.0
 13
1.0
 23
0.0
 33
0.0
 40
0.0
 40
0.0
 40
0.0
 40
0.0
 40
1.0
 40
1.0
 40
1.0
 40
2.0
 40
2.0
 40
2.0
 40
3.0
 40
3.0
 40
3.0
 40
4.0
 40
4.0
 40
4.0
 40
5.0
 40
5.0
 40
5.0
 40
6.0
 40
6.0
 40
6.0
 40
7.0
 40
7.0
 40
7.0
 40
8.0
 40
8.0
 40
8.0
 40
9.0
 40
9.0
 40
9.0
 40
10.0
 40
10.0
 40
10.0
 40
11.0
 40
11.0
 40
11.0
 40
12.0
 40
12.0
 40
12.0
 40
13.0
 40
13.0
 40
13.0
 40
13.0
 10
168.9270461096967
 20
-542.9282552781096
 30
0.0
 10
168.8683416022322
 20
-542.886265248464
 30
0.0
 10
169.2670430487633
 20
-542.2739446219894
 30
0.0
 10
170.1223351089138
 20
-541.0904780583023
 30
0.0
 10
170.1223351089138
 20
-541.0904780583023
 30
0.0
 10
171.426879719249
 20
-539.2869451345177
 30
0.0
 10
171.426879719249
 20
-539.2869451345177
 30
0.0
 10
171.426879719249
 20
-539.2869451345177
 30
0.0
 10
178.3213979848588
 20
-544.2731592373257
 30
0.0
 10
178.3213979848588
 20
-544.2731592373257
 30
0.0
 10
178.3213979848588
 20
-544.2731592373257
 30
0.0
 10
180.614135137519
 20
-541.1023004938324
 30
0.0
 10
180.614135137519
 20
-541.1023004938324
 30
0.0
 10
180.614135137519
 20
-541.1023004938324
 30
0.0
 10
173.6617277048244
 20
-536.0740963613789
 30
0.0
 10
173.6617277048244
 20
-536.0740963613789
 30
0.0
 10
175.0127467169004
 20
-535.8405013420925
 30
0.0
 10
177.0584357339794
 20
-535.50335809436
 30
0.0
 10
179.7987947560614
 20
-535.0626666181815
 30
0.0
 10
179.7987947560614
 20
-535.0626666181815
 30
0.0
 10
186.6346085142104
 20
-540.0068906913439
 30
0.0
 10
186.6346085142104
 20
-540.0068906913439
 30
0.0
 10
186.6346085142104
 20
-540.0068906913439
 30
0.0
 10
181.6072197221365
 20
-546.9592981240403
 30
0.0
 10
181.6072197221365
 20
-546.9592981240403
 30
0.0
 10
181.6072197221365
 20
-546.9592981240403
 30
0.0
 10
175.7922121215743
 20
-547.8936782011915
 30
0.0
 10
175.7922121215743
 20
-547.8936782011915
 30
0.0
 10
175.7922121215743
 20
-547.8936782011915
 30
0.0
 10
172.2715723544388
 20
-545.3477778600882
 30
0.0
 10
172.2715723544388
 20
-545.3477778600882
 30
0.0
 10
172.2715723544388
 20
-545.3477778600882
 30
0.0
 10
174.6279060568522
 20
-542.0896776957798
 30
0.0
 10
174.6279060568522
 20
-542.0896776957798
 30
0.0
 10
174.6279060568522
 20
-542.0896776957798
 30
0.0
 10
171.8215044638746
 20
-542.5405609267254
 30
0.0
 10
171.8215044638746
 20
-542.5405609267254
 30
0.0
 10
169.9494829480464
 20
-542.8418291976741
 30
0.0
 10
168.9849352767778
 20
-542.9706529779451
 30
0.0
 10
168.9270461096967
 20
-542.9282552781096
 30
0.0
  0
SPLINE
  5
85
330
41
100
AcDbEntity
  8
Layer 1
 62
   240
420
 15539236
370
    18
100
AcDbSpline
210
0.0
220
0.0
230
1.0
 70
    11
 71
     3
 72
    38
 73
    34
 74
     0
 42
0.0000000001
 43
0.0000000001
 12
1.0
 22
0.0
 32
0.0
 13
1.0
 23
0.0
 33
0.0
 40
0.0
 40
0.0
 40
0.0
 40
0.0
 40
1.0
 40
1.0
 40
1.0
 40
2.0
 40
2.0
 40
2.0
 40
3.0
 40
3.0
 40
3.0
 40
4.0
 40
4.0
 40
4.0
 40
5.0
 40
5.0
 40
5.0
 40
6.0
 40
6.0
 40
6.0
 40
7.0
 40
7.0
 40
7.0
 40
8.0
 40
8.0
 40
8.0
 40
9.0
 40
9.0
 40
9.0
 40
10.0
 40
10.0
 40
10.0
 40
11.0
 40
11.0
 40
11.0
 40
11.0
 10
178.1249009529274
 20
-530.8836394930149
 30
0.0
 10
178.1249009529274
 20
-530.8836394930149
 30
0.0
 10
171.201845773965
 20
-525.8766342104791
 30
0.0
 10
171.201845773965
 20
-525.8766342104791
 30
0.0
 10
171.201845773965
 20
-525.8766342104791
 30
0.0
 10
173.6837418951254
 20
-522.4436435343487
 30
0.0
 10
173.6837418951254
 20
-522.4436435343487
 30
0.0
 10
173.6837418951254
 20
-522.4436435343487
 30
0.0
 10
180.4037773191048
 20
-527.3034798780318
 30
0.0
 10
180.4037773191048
 20
-527.3034798780318
 30
0.0
 10
180.4037773191048
 20
-527.3034798780318
 30
0.0
 10
185.264021332976
 20
-520.5834444540524
 30
0.0
 10
185.264021332976
 20
-520.5834444540524
 30
0.0
 10
185.264021332976
 20
-520.5834444540524
 30
0.0
 10
192.187076511942
 20
-525.5904497365882
 30
0.0
 10
192.187076511942
 20
-525.5904497365882
 30
0.0
 10
192.3778661612014
 20
-526.8803182200536
 30
0.0
 10
192.6958489099707
 20
-528.8090058923954
 30
0.0
 10
193.1426554390091
 20
-531.3769204237979
 30
0.0
 10
193.1426554390091
 20
-531.3769204237979
 30
0.0
 10
190.6599439774691
 20
-534.8095034297367
 30
0.0
 10
190.6599439774691
 20
-534.8095034297367
 30
0.0
 10
190.6599439774691
 20
-534.8095034297367
 30
0.0
 10
184.8449363769068
 20
-535.743475836698
 30
0.0
 10
184.8449363769068
 20
-535.743475836698
 30
0.0
 10
184.8449363769068
 20
-535.743475836698
 30
0.0
 10
181.2370551889544
 20
-533.134794286223
 30
0.0
 10
181.2370551889544
 20
-533.134794286223
 30
0.0
 10
181.2370551889544
 20
-533.134794286223
 30
0.0
 10
183.4890253225421
 20
-530.0222323800044
 30
0.0
 10
183.4890253225421
 20
-530.0222323800044
 30
0.0
 10
183.4890253225421
 20
-530.0222323800044
 30
0.0
 10
178.1249009529274
 20
-530.8836394930149
 30
0.0
 10
178.1249009529274
 20
-530.8836394930149
 30
0.0
  0
POLYLINE
  5
86
330
41
100
AcDbEntity
  8
Layer 1
 62
   240
420
 15539236
370
    18
100
AcDb2dPolyline
 66
     1
 10
0.0
 20
0.0
 30
0.0
  0
VERTEX
  5
87
330
86
100
AcDbEntity
  8
Layer 1
 62
   240
420
 15539236
370
    18
100
AcDbVertex
100
AcDb2dVertex
 10
189.5013452954154
 20
-528.8762714738659
 30
0.0
  0
VERTEX
  5
88
330
86
100
AcDbEntity
  8
Layer 1
 62
   240
420
 15539236
370
    18
100
AcDbVertex
100
AcDb2dVertex
 10
186.2138928773784
 20
-526.4987389215312
 30
0.0
  0
VERTEX
  5
89
330
86
100
AcDbEntity
  8
Layer 1
 62
   240
420
 15539236
370
    18
100
AcDbVertex
100
AcDb2dVertex
 10
183.8363603250436
 20
-529.785783669382
 30
0.0
  0
VERTEX
  5
8A
330
86
100
AcDbEntity
  8
Layer 1
 62
   240
420
 15539236
370
    18
100
AcDbVertex
100
AcDb2dVertex
 10
187.1238127430843
 20
-532.1633162217149
 30
0.0
  0
VERTEX
  5
8B
330
86
100
AcDbEntity
  8
Layer 1
 62
   240
420
 15539236
370
    18
100
AcDbVertex
100
AcDb2dVertex
 10
189.5013452954154
 20
-528.8762714738659
 30
0.0
  0
SEQEND
  5
8C
330
86
100
AcDbEntity
  8
Layer 1
 62
   240
420
 15539236
370
    18
  0
SPLINE
  5
8D
330
41
100
AcDbEntity
  8
Layer 1
 62
   240
420
 15539236
370
    18
100
AcDbSpline
210
0.0
220
0.0
230
1.0
 70
    11
 71
     3
 72
    32
 73
    28
 74
     0
 42
0.0000000001
 43
0.0000000001
 12
1.0
 22
0.0
 32
0.0
 13
1.0
 23
0.0
 33
0.0
 40
0.0
 40
0.0
 40
0.0
 40
0.0
 40
1.0
 40
1.0
 40
1.0
 40
2.0
 40
2.0
 40
2.0
 40
3.0
 40
3.0
 40
3.0
 40
4.0
 40
4.0
 40
4.0
 40
5.0
 40
5.0
 40
5.0
 40
6.0
 40
6.0
 40
6.0
 40
7.0
 40
7.0
 40
7.0
 40
8.0
 40
8.0
 40
8.0
 40
9.0
 40
9.0
 40
9.0
 40
9.0
 10
186.919977647718
 20
-518.4150467095642
 30
0.0
 10
186.919977647718
 20
-518.4150467095642
 30
0.0
 10
179.9969224687557
 20
-513.4080414270284
 30
0.0
 10
179.9969224687557
 20
-513.4080414270284
 30
0.0
 10
179.9969224687557
 20
-513.4080414270284
 30
0.0
 10
182.5636139895869
 20
-509.8588647465385
 30
0.0
 10
182.5636139895869
 20
-509.8588647465385
 30
0.0
 10
182.5636139895869
 20
-509.8588647465385
 30
0.0
 10
191.0871823373527
 20
-516.023245700555
 30
0.0
 10
191.0871823373527
 20
-516.023245700555
 30
0.0
 10
196.7497212865819
 20
-520.118700436622
 30
0.0
 10
199.5610149218483
 20
-522.1949647180045
 30
0.0
 10
199.5186172220128
 20
-522.2532615552773
 30
0.0
 10
199.4900803086639
 20
-522.2923978935887
 30
0.0
 10
198.5100411701496
 20
-522.4844105534212
 30
0.0
 10
196.5776844660941
 20
-522.8288918645885
 30
0.0
 10
196.5776844660941
 20
-522.8288918645885
 30
0.0
 10
193.6693653254333
 20
-523.296081903165
 30
0.0
 10
193.6693653254333
 20
-523.296081903165
 30
0.0
 10
193.6693653254333
 20
-523.296081903165
 30
0.0
 10
190.1780778120265
 20
-520.7713804119776
 30
0.0
 10
190.1780778120265
 20
-520.7713804119776
 30
0.0
 10
190.1780778120265
 20
-520.7713804119776
 30
0.0
 10
192.5140280049054
 20
-517.5422248312116
 30
0.0
 10
192.5140280049054
 20
-517.5422248312116
 30
0.0
 10
190.0411006279428
 20
-517.9397032671732
 30
0.0
 10
188.1772325159291
 20
-518.2307797833528
 30
0.0
 10
186.919977647718
 20
-518.4150467095642
 30
0.0
  0
SPLINE
  5
8E
330
41
100
AcDbEntity
  8
Layer 1
 62
   240
420
 15539236
370
    18
100
AcDbSpline
210
0.0
220
0.0
230
1.0
 70
    11
 71
     3
 72
    38
 73
    34
 74
     0
 42
0.0000000001
 43
0.0000000001
 12
1.0
 22
0.0
 32
0.0
 13
1.0
 23
0.0
 33
0.0
 40
0.0
 40
0.0
 40
0.0
 40
0.0
 40
1.0
 40
1.0
 40
1.0
 40
2.0
 40
2.0
 40
2.0
 40
3.0
 40
3.0
 40
3.0
 40
4.0
 40
4.0
 40
4.0
 40
5.0
 40
5.0
 40
5.0
 40
6.0
 40
6.0
 40
6.0
 40
7.0
 40
7.0
 40
7.0
 40
8.0
 40
8.0
 40
8.0
 40
9.0
 40
9.0
 40
9.0
 40
10.0
 40
10.0
 40
10.0
 40
11.0
 40
11.0
 40
11.0
 40
11.0
 10
191.0195090856942
 20
-512.5629411216469
 30
0.0
 10
190.962435258989
 20
-512.5209510919995
 30
0.0
 10
191.76636087511
 20
-511.3464532725084
 30
0.0
 10
193.4361779763349
 20
-509.0378169824107
 30
0.0
 10
193.4361779763349
 20
-509.0378169824107
 30
0.0
 10
195.939272947413
 20
-505.5762893929277
 30
0.0
 10
195.939272947413
 20
-505.5762893929277
 30
0.0
 10
197.2291414308784
 20
-505.386315084048
 30
0.0
 10
199.1582367734081
 20
-505.0679246650907
 30
0.0
 10
201.7257436346226
 20
-504.6211181360504
 30
0.0
 10
201.7257436346226
 20
-504.6211181360504
 30
0.0
 10
202.6756151790214
 20
-510.5368202737227
 30
0.0
 10
202.6756151790214
 20
-510.5368202737227
 30
0.0
 10
202.6756151790214
 20
-510.5368202737227
 30
0.0
 10
208.6911965134204
 20
-509.5698265813116
 30
0.0
 10
208.6911965134204
 20
-509.5698265813116
 30
0.0
 10
208.6911965134204
 20
-509.5698265813116
 30
0.0
 10
203.6417935310492
 20
-516.5515862677403
 30
0.0
 10
203.6417935310492
 20
-516.5515862677403
 30
0.0
 10
202.3527403879634
 20
-516.7423759170015
 30
0.0
 10
200.4244603858133
 20
-517.0603586657708
 30
0.0
 10
197.8569535246024
 20
-517.5071651948092
 30
0.0
 10
197.8569535246024
 20
-517.5071651948092
 30
0.0
 10
194.2205354232974
 20
-514.8772847944165
 30
0.0
 10
194.2205354232974
 20
-514.8772847944165
 30
0.0
 10
194.2205354232974
 20
-514.8772847944165
 30
0.0
 10
196.4708748761223
 20
-511.7647228881979
 30
0.0
 10
196.4708748761223
 20
-511.7647228881979
 30
0.0
 10
196.4708748761223
 20
-511.7647228881979
 30
0.0
 10
193.7639448096816
 20
-512.1992993115164
 30
0.0
 10
193.7639448096816
 20
-512.1992993115164
 30
0.0
 10
191.9930255011532
 20
-512.484260774836
 30
0.0
 10
191.0782135931586
 20
-512.6049311512907
 30
0.0
 10
191.0195090856942
 20
-512.5629411216469
 30
0.0
  0
POLYLINE
  5
8F
330
41
100
AcDbEntity
  8
Layer 1
 62
   240
420
 15539236
370
    18
100
AcDb2dPolyline
 66
     1
 10
0.0
 20
0.0
 30
0.0
  0
VERTEX
  5
90
330
8F
100
AcDbEntity
  8
Layer 1
 62
   240
420
 15539236
370
    18
100
AcDbVertex
100
AcDb2dVertex
 10
202.5125471027277
 20
-510.6395531617854
 30
0.0
  0
VERTEX
  5
91
330
8F
100
AcDbEntity
  8
Layer 1
 62
   240
420
 15539236
370
    18
100
AcDbVertex
100
AcDb2dVertex
 10
199.2250946846871
 20
-508.2624282796442
 30
0.0
  0
VERTEX
  5
92
330
8F
100
AcDbEntity
  8
Layer 1
 62
   240
420
 15539236
370
    18
100
AcDbVertex
100
AcDb2dVertex
 10
196.847562132356
 20
-511.5494730274931
 30
0.0
  0
VERTEX
  5
93
330
8F
100
AcDbEntity
  8
Layer 1
 62
   240
420
 15539236
370
    18
100
AcDbVertex
100
AcDb2dVertex
 10
200.1350145503966
 20
-513.9265979096344
 30
0.0
  0
VERTEX
  5
94
330
8F
100
AcDbEntity
  8
Layer 1
 62
   240
420
 15539236
370
    18
100
AcDbVertex
100
AcDb2dVertex
 10
202.5125471027277
 20
-510.6395531617854
 30
0.0
  0
SEQEND
  5
95
330
8F
100
AcDbEntity
  8
Layer 1
 62
   240
420
 15539236
370
    18
  0
SPLINE
  5
96
330
41
100
AcDbEntity
  8
Layer 1
 62
   240
420
 15539236
370
    18
100
AcDbSpline
210
0.0
220
0.0
230
1.0
 70
    11
 71
     3
 72
    32
 73
    28
 74
     0
 42
0.0000000001
 43
0.0000000001
 12
1.0
 22
0.0
 32
0.0
 13
1.0
 23
0.0
 33
0.0
 40
0.0
 40
0.0
 40
0.0
 40
0.0
 40
1.0
 40
1.0
 40
1.0
 40
2.0
 40
2.0
 40
2.0
 40
3.0
 40
3.0
 40
3.0
 40
4.0
 40
4.0
 40
4.0
 40
5.0
 40
5.0
 40
5.0
 40
6.0
 40
6.0
 40
6.0
 40
7.0
 40
7.0
 40
7.0
 40
8.0
 40
8.0
 40
8.0
 40
9.0
 40
9.0
 40
9.0
 40
9.0
 10
200.4220143646708
 20
-492.0273706040443
 30
0.0
 10
200.4220143646708
 20
-492.0273706040443
 30
0.0
 10
196.9307268512639
 20
-489.5026691128587
 30
0.0
 10
196.9307268512639
 20
-489.5026691128587
 30
0.0
 10
196.9307268512639
 20
-489.5026691128587
 30
0.0
 10
201.9589309837174
 20
-482.5502616801623
 30
0.0
 10
201.9589309837174
 20
-482.5502616801623
 30
0.0
 10
201.9589309837174
 20
-482.5502616801623
 30
0.0
 10
207.7747539246629
 20
-481.6158816030111
 30
0.0
 10
207.7747539246629
 20
-481.6158816030111
 30
0.0
 10
207.7747539246629
 20
-481.6158816030111
 30
0.0
 10
218.1018551962152
 20
-489.0843994971692
 30
0.0
 10
218.1018551962152
 20
-489.0843994971692
 30
0.0
 10
218.324443120353
 20
-490.3685605979681
 30
0.0
 10
218.6465025710277
 20
-492.3135550779371
 30
0.0
 10
219.0639568463339
 20
-494.9206059476492
 30
0.0
 10
219.0639568463339
 20
-494.9206059476492
 30
0.0
 10
214.0365680542636
 20
-501.8730133803438
 30
0.0
 10
214.0365680542636
 20
-501.8730133803438
 30
0.0
 10
214.0365680542636
 20
-501.8730133803438
 30
0.0
 10
203.6801145289792
 20
-494.3832966362679
 30
0.0
 10
203.6801145289792
 20
-494.3832966362679
 30
0.0
 10
203.6801145289792
 20
-494.3832966362679
 30
0.0
 10
206.0364482313926
 20
-491.1251964719595
 30
0.0
 10
206.0364482313926
 20
-491.1251964719595
 30
0.0
 10
206.0364482313926
 20
-491.1251964719595
 30
0.0
 10
200.4220143646708
 20
-492.0273706040443
 30
0.0
 10
200.4220143646708
 20
-492.0273706040443
 30
0.0
  0
POLYLINE
  5
97
330
41
100
AcDbEntity
  8
Layer 1
 62
   240
420
 15539236
370
    18
100
AcDb2dPolyline
 66
     1
 10
0.0
 20
0.0
 30
0.0
  0
VERTEX
  5
98
330
97
100
AcDbEntity
  8
Layer 1
 62
   240
420
 15539236
370
    18
100
AcDbVertex
100
AcDb2dVertex
 10
215.3394819838322
 20
-492.5365506722646
 30
0.0
  0
VERTEX
  5
99
330
97
100
AcDbEntity
  8
Layer 1
 62
   240
420
 15539236
370
    18
100
AcDbVertex
100
AcDb2dVertex
 10
205.389883308897
 20
-485.341171805896
 30
0.0
  0
VERTEX
  5
9A
330
97
100
AcDbEntity
  8
Layer 1
 62
   240
420
 15539236
370
    18
100
AcDbVertex
100
AcDb2dVertex
 10
203.0963308158534
 20
-488.5120305493874
 30
0.0
  0
VERTEX
  5
9B
330
97
100
AcDbEntity
  8
Layer 1
 62
   240
420
 15539236
370
    18
100
AcDbVertex
100
AcDb2dVertex
 10
213.0459294907887
 20
-495.707409415756
 30
0.0
  0
VERTEX
  5
9C
330
97
100
AcDbEntity
  8
Layer 1
 62
   240
420
 15539236
370
    18
100
AcDbVertex
100
AcDb2dVertex
 10
215.3394819838322
 20
-492.5365506722646
 30
0.0
  0
SEQEND
  5
9D
330
97
100
AcDbEntity
  8
Layer 1
 62
   240
420
 15539236
370
    18
  0
SPLINE
  5
9E
330
41
100
AcDbEntity
  8
Layer 1
 62
   240
420
 15539236
370
    18
100
AcDbSpline
210
0.0
220
0.0
230
1.0
 70
    11
 71
     3
 72
    32
 73
    28
 74
     0
 42
0.0000000001
 43
0.0000000001
 12
1.0
 22
0.0
 32
0.0
 13
1.0
 23
0.0
 33
0.0
 40
0.0
 40
0.0
 40
0.0
 40
0.0
 40
1.0
 40
1.0
 40
1.0
 40
2.0
 40
2.0
 40
2.0
 40
3.0
 40
3.0
 40
3.0
 40
4.0
 40
4.0
 40
4.0
 40
5.0
 40
5.0
 40
5.0
 40
6.0
 40
6.0
 40
6.0
 40
7.0
 40
7.0
 40
7.0
 40
8.0
 40
8.0
 40
8.0
 40
9.0
 40
9.0
 40
9.0
 40
9.0
 10
211.9142370413247
 20
-480.1796595210726
 30
0.0
 10
210.7507463169859
 20
-479.3382282474067
 30
0.0
 10
210.1897921345408
 20
-478.8885680270323
 30
0.0
 10
210.2313744939966
 20
-478.8302711897595
 30
0.0
 10
210.2452352804794
 20
-478.8111106907945
 30
0.0
 10
211.236689184334
 20
-478.6260284242035
 30
0.0
 10
213.2024748440308
 20
-478.275839730366
 30
0.0
 10
213.2024748440308
 20
-478.275839730366
 30
0.0
 10
216.1099786443119
 20
-477.8090573619811
 30
0.0
 10
216.1099786443119
 20
-477.8090573619811
 30
0.0
 10
216.1099786443119
 20
-477.8090573619811
 30
0.0
 10
226.5243213366775
 20
-485.3407641357044
 30
0.0
 10
226.5243213366775
 20
-485.3407641357044
 30
0.0
 10
226.5243213366775
 20
-485.3407641357044
 30
0.0
 10
220.4092684757416
 20
-486.3232492953612
 30
0.0
 10
220.4092684757416
 20
-486.3232492953612
 30
0.0
 10
220.4092684757416
 20
-486.3232492953612
 30
0.0
 10
217.0337592965043
 20
-483.8825278634649
 30
0.0
 10
217.0337592965043
 20
-483.8825278634649
 30
0.0
 10
217.0337592965043
 20
-483.8825278634649
 30
0.0
 10
219.4740730582089
 20
-480.5078340246091
 30
0.0
 10
219.4740730582089
 20
-480.5078340246091
 30
0.0
 10
219.4740730582089
 20
-480.5078340246091
 30
0.0
 10
213.6598807980299
 20
-481.4422141017603
 30
0.0
 10
213.6598807980299
 20
-481.4422141017603
 30
0.0
 10
213.6598807980299
 20
-481.4422141017603
 30
0.0
 10
211.9142370413247
 20
-480.1796595210726
 30
0.0
 10
211.9142370413247
 20
-480.1796595210726
 30
0.0
  0
SPLINE
  5
9F
330
41
100
AcDbEntity
  8
Layer 1
 62
   240
420
 15539236
370
    18
100
AcDbSpline
210
0.0
220
0.0
230
1.0
 70
    11
 71
     3
 72
    35
 73
    31
 74
     0
 42
0.0000000001
 43
0.0000000001
 12
1.0
 22
0.0
 32
0.0
 13
1.0
 23
0.0
 33
0.0
 40
0.0
 40
0.0
 40
0.0
 40
0.0
 40
1.0
 40
1.0
 40
1.0
 40
2.0
 40
2.0
 40
2.0
 40
3.0
 40
3.0
 40
3.0
 40
4.0
 40
4.0
 40
4.0
 40
5.0
 40
5.0
 40
5.0
 40
6.0
 40
6.0
 40
6.0
 40
7.0
 40
7.0
 40
7.0
 40
8.0
 40
8.0
 40
8.0
 40
9.0
 40
9.0
 40
9.0
 40
10.0
 40
10.0
 40
10.0
 40
10.0
 10
223.4602721831579
 20
-474.7511232613215
 30
0.0
 10
223.4602721831579
 20
-474.7511232613215
 30
0.0
 10
217.7463667898992
 20
-475.6691965308455
 30
0.0
 10
217.7463667898992
 20
-475.6691965308455
 30
0.0
 10
217.7463667898992
 20
-475.6691965308455
 30
0.0
 10
222.7949544318872
 20
-468.6870291742252
 30
0.0
 10
222.7949544318872
 20
-468.6870291742252
 30
0.0
 10
222.7949544318872
 20
-468.6870291742252
 30
0.0
 10
228.6099620324494
 20
-467.7530567672657
 30
0.0
 10
228.6099620324494
 20
-467.7530567672657
 30
0.0
 10
228.6099620324494
 20
-467.7530567672657
 30
0.0
 10
235.5338325517951
 20
-472.7604697199913
 30
0.0
 10
235.5338325517951
 20
-472.7604697199913
 30
0.0
 10
235.5338325517951
 20
-472.7604697199913
 30
0.0
 10
232.9671410309638
 20
-476.3096464004811
 30
0.0
 10
232.9671410309638
 20
-476.3096464004811
 30
0.0
 10
232.9671410309638
 20
-476.3096464004811
 30
0.0
 10
229.7090408666554
 20
-473.9529050278743
 30
0.0
 10
229.7090408666554
 20
-473.9529050278743
 30
0.0
 10
229.7090408666554
 20
-473.9529050278743
 30
0.0
 10
230.6108073285468
 20
-479.5677465647877
 30
0.0
 10
230.6108073285468
 20
-479.5677465647877
 30
0.0
 10
228.600177947872
 20
-479.8567847300146
 30
0.0
 10
226.5952559498655
 20
-480.1788441806912
 30
0.0
 10
224.5952259941478
 20
-480.5339249168155
 30
0.0
 10
224.5952259941478
 20
-480.5339249168155
 30
0.0
 10
221.1039384807445
 20
-478.0092234256299
 30
0.0
 10
221.1039384807445
 20
-478.0092234256299
 30
0.0
 10
221.1039384807445
 20
-478.0092234256299
 30
0.0
 10
223.4602721831579
 20
-474.7511232613215
 30
0.0
 10
223.4602721831579
 20
-474.7511232613215
 30
0.0
  0
POLYLINE
  5
A0
330
41
100
AcDbEntity
  8
Layer 1
 62
   240
420
 15539236
370
    18
100
AcDb2dPolyline
 66
     1
 10
0.0
 20
0.0
 30
0.0
  0
VERTEX
  5
A1
330
A0
100
AcDbEntity
  8
Layer 1
 62
   240
420
 15539236
370
    18
100
AcDbVertex
100
AcDb2dVertex
 10
229.3894274371232
 20
-473.7217560297322
 30
0.0
  0
VERTEX
  5
A2
330
A0
100
AcDbEntity
  8
Layer 1
 62
   240
420
 15539236
370
    18
100
AcDbVertex
100
AcDb2dVertex
 10
226.101159678703
 20
-471.3442234773975
 30
0.0
  0
VERTEX
  5
A3
330
A0
100
AcDbEntity
  8
Layer 1
 62
   240
420
 15539236
370
    18
100
AcDbVertex
100
AcDb2dVertex
 10
223.7872236761214
 20
-474.5440268044313
 30
0.0
  0
VERTEX
  5
A4
330
A0
100
AcDbEntity
  8
Layer 1
 62
   240
420
 15539236
370
    18
100
AcDbVertex
100
AcDb2dVertex
 10
227.0754914345453
 20
-476.9215593567642
 30
0.0
  0
VERTEX
  5
A5
330
A0
100
AcDbEntity
  8
Layer 1
 62
   240
420
 15539236
370
    18
100
AcDbVertex
100
AcDb2dVertex
 10
229.3894274371232
 20
-473.7217560297322
 30
0.0
  0
SEQEND
  5
A6
330
A0
100
AcDbEntity
  8
Layer 1
 62
   240
420
 15539236
370
    18
  0
SPLINE
  5
A7
330
41
100
AcDbEntity
  8
Layer 1
 62
   240
420
 15539236
370
    18
100
AcDbSpline
210
0.0
220
0.0
230
1.0
 70
    11
 71
     3
 72
    62
 73
    58
 74
     0
 42
0.0000000001
 43
0.0000000001
 12
1.0
 22
0.0
 32
0.0
 13
1.0
 23
0.0
 33
0.0
 40
0.0
 40
0.0
 40
0.0
 40
0.0
 40
1.0
 40
1.0
 40
1.0
 40
2.0
 40
2.0
 40
2.0
 40
3.0
 40
3.0
 40
3.0
 40
4.0
 40
4.0
 40
4.0
 40
5.0
 40
5.0
 40
5.0
 40
6.0
 40
6.0
 40
6.0
 40
7.0
 40
7.0
 40
7.0
 40
8.0
 40
8.0
 40
8.0
 40
9.0
 40
9.0
 40
9.0
 40
10.0
 40
10.0
 40
10.0
 40
11.0
 40
11.0
 40
11.0
 40
12.0
 40
12.0
 40
12.0
 40
13.0
 40
13.0
 40
13.0
 40
14.0
 40
14.0
 40
14.0
 40
15.0
 40
15.0
 40
15.0
 40
16.0
 40
16.0
 40
16.0
 40
17.0
 40
17.0
 40
17.0
 40
18.0
 40
18.0
 40
18.0
 40
19.0
 40
19.0
 40
19.0
 40
19.0
 10
232.3181300873221
 20
-462.5038953914354
 30
0.0
 10
232.3181300873221
 20
-462.5038953914354
 30
0.0
 10
226.6025940132968
 20
-463.4223763311493
 30
0.0
 10
226.6025940132968
 20
-463.4223763311493
 30
0.0
 10
226.6025940132968
 20
-463.4223763311493
 30
0.0
 10
229.1277031746758
 20
-459.9314964879341
 30
0.0
 10
229.1277031746758
 20
-459.9314964879341
 30
0.0
 10
229.1277031746758
 20
-459.9314964879341
 30
0.0
 10
232.4436925060654
 20
-462.3298202199949
 30
0.0
 10
232.4436925060654
 20
-462.3298202199949
 30
0.0
 10
232.4436925060654
 20
-462.3298202199949
 30
0.0
 10
235.8518153005643
 20
-457.6171528151644
 30
0.0
 10
235.8518153005643
 20
-457.6171528151644
 30
0.0
 10
235.8518153005643
 20
-457.6171528151644
 30
0.0
 10
234.1934129646761
 20
-456.4181947842299
 30
0.0
 10
234.1934129646761
 20
-456.4181947842299
 30
0.0
 10
233.0878114074185
 20
-455.6183458700198
 30
0.0
 10
232.5570248190888
 20
-455.1894768293714
 30
0.0
 10
232.5994225189243
 20
-455.1311799920986
 30
0.0
 10
232.6548656648629
 20
-455.0541303260507
 30
0.0
 10
233.6022911881191
 20
-454.8674173786967
 30
0.0
 10
235.4400684079264
 20
-454.572264160608
 30
0.0
 10
235.4400684079264
 20
-454.572264160608
 30
0.0
 10
238.2472853412874
 20
-454.1209732594725
 30
0.0
 10
238.2472853412874
 20
-454.1209732594725
 30
0.0
 10
238.2472853412874
 20
-454.1209732594725
 30
0.0
 10
241.9424079500568
 20
-456.7928436895108
 30
0.0
 10
241.9424079500568
 20
-456.7928436895108
 30
0.0
 10
241.9424079500568
 20
-456.7928436895108
 30
0.0
 10
242.3639389272721
 20
-459.5796771133355
 30
0.0
 10
242.3639389272721
 20
-459.5796771133355
 30
0.0
 10
242.6647995280291
 20
-461.4508832887823
 30
0.0
 10
242.7936233082983
 20
-462.4150232898573
 30
0.0
 10
242.7512256084628
 20
-462.4733201271301
 30
0.0
 10
242.7088279086274
 20
-462.5316169644066
 30
0.0
 10
241.5828428418317
 20
-461.7615279741185
 30
0.0
 10
239.3724550676998
 20
-460.162645486078
 30
0.0
 10
239.3724550676998
 20
-460.162645486078
 30
0.0
 10
236.0262981421947
 20
-457.7435305742911
 30
0.0
 10
236.0262981421947
 20
-457.7435305742911
 30
0.0
 10
236.0262981421947
 20
-457.7435305742911
 30
0.0
 10
236.6785704473623
 20
-461.8039256739539
 30
0.0
 10
236.6785704473623
 20
-461.8039256739539
 30
0.0
 10
236.6785704473623
 20
-461.8039256739539
 30
0.0
 10
232.6181753476994
 20
-462.4561979791215
 30
0.0
 10
232.6181753476994
 20
-462.4561979791215
 30
0.0
 10
232.6181753476994
 20
-462.4561979791215
 30
0.0
 10
239.3675630254111
 20
-467.3368255025307
 30
0.0
 10
239.3675630254111
 20
-467.3368255025307
 30
0.0
 10
239.3675630254111
 20
-467.3368255025307
 30
0.0
 10
233.4522685579323
 20
-468.2871047171211
 30
0.0
 10
233.4522685579323
 20
-468.2871047171211
 30
0.0
 10
233.4522685579323
 20
-468.2871047171211
 30
0.0
 10
229.9609810445254
 20
-465.7624032259337
 30
0.0
 10
229.9609810445254
 20
-465.7624032259337
 30
0.0
 10
229.9609810445254
 20
-465.7624032259337
 30
0.0
 10
232.3181300873221
 20
-462.5038953914354
 30
0.0
 10
232.3181300873221
 20
-462.5038953914354
 30
0.0
  0
SPLINE
  5
A8
330
41
100
AcDbEntity
  8
Layer 1
 62
   240
420
 15539236
370
    18
100
AcDbSpline
210
0.0
220
0.0
230
1.0
 70
    11
 71
     3
 72
    35
 73
    31
 74
     0
 42
0.0000000001
 43
0.0000000001
 12
1.0
 22
0.0
 32
0.0
 13
1.0
 23
0.0
 33
0.0
 40
0.0
 40
0.0
 40
0.0
 40
0.0
 40
1.0
 40
1.0
 40
1.0
 40
2.0
 40
2.0
 40
2.0
 40
3.0
 40
3.0
 40
3.0
 40
4.0
 40
4.0
 40
4.0
 40
5.0
 40
5.0
 40
5.0
 40
6.0
 40
6.0
 40
6.0
 40
7.0
 40
7.0
 40
7.0
 40
8.0
 40
8.0
 40
8.0
 40
9.0
 40
9.0
 40
9.0
 40
10.0
 40
10.0
 40
10.0
 40
10.0
 10
242.1005839840582
 20
-448.9769907928494
 30
0.0
 10
242.1005839840582
 20
-448.9769907928494
 30
0.0
 10
236.3858632504162
 20
-449.8954717325632
 30
0.0
 10
236.3858632504162
 20
-449.8954717325632
 30
0.0
 10
236.3858632504162
 20
-449.8954717325632
 30
0.0
 10
241.4140673828733
 20
-442.942656629677
 30
0.0
 10
241.4140673828733
 20
-442.942656629677
 30
0.0
 10
243.9432532461542
 20
-442.4677208574776
 30
0.0
 10
245.8332122503743
 20
-442.122016535739
 30
0.0
 10
247.0839443955338
 20
-441.9030976433169
 30
0.0
 10
247.0839443955338
 20
-441.9030976433169
 30
0.0
 10
248.8002358985032
 20
-443.1444533740869
 30
0.0
 10
248.8002358985032
 20
-443.1444533740869
 30
0.0
 10
248.8002358985032
 20
-443.1444533740869
 30
0.0
 10
250.5377262513903
 20
-444.3568645213163
 30
0.0
 10
250.5377262513903
 20
-444.3568645213163
 30
0.0
 10
251.0228537783587
 20
-446.9529082958798
 30
0.0
 10
251.3807882058172
 20
-448.9097252113788
 30
0.0
 10
251.609083512627
 20
-450.2264999274357
 30
0.0
 10
251.609083512627
 20
-450.2264999274357
 30
0.0
 10
249.021193141878
 20
-453.8046211914661
 30
0.0
 10
249.021193141878
 20
-453.8046211914661
 30
0.0
 10
247.7313246584126
 20
-453.9954108407255
 30
0.0
 10
245.8030446562625
 20
-454.3133935894948
 30
0.0
 10
243.235537795048
 20
-454.7602001185351
 30
0.0
 10
243.235537795048
 20
-454.7602001185351
 30
0.0
 10
239.7442502816448
 20
-452.2354986273476
 30
0.0
 10
239.7442502816448
 20
-452.2354986273476
 30
0.0
 10
239.7442502816448
 20
-452.2354986273476
 30
0.0
 10
242.1005839840582
 20
-448.9769907928494
 30
0.0
 10
242.1005839840582
 20
-448.9769907928494
 30
0.0
  0
POLYLINE
  5
A9
330
41
100
AcDbEntity
  8
Layer 1
 62
   240
420
 15539236
370
    18
100
AcDb2dPolyline
 66
     1
 10
0.0
 20
0.0
 30
0.0
  0
VERTEX
  5
AA
330
A9
100
AcDbEntity
  8
Layer 1
 62
   240
420
 15539236
370
    18
100
AcDbVertex
100
AcDb2dVertex
 10
248.0289238976438
 20
-447.9480312314499
 30
0.0
  0
VERTEX
  5
AB
330
A9
100
AcDbEntity
  8
Layer 1
 62
   240
420
 15539236
370
    18
100
AcDbVertex
100
AcDb2dVertex
 10
244.7406561392236
 20
-445.570498679117
 30
0.0
  0
VERTEX
  5
AC
330
A9
100
AcDbEntity
  8
Layer 1
 62
   240
420
 15539236
370
    18
100
AcDbVertex
100
AcDb2dVertex
 10
242.3427400773544
 20
-448.8864880105084
 30
0.0
  0
VERTEX
  5
AD
330
A9
100
AcDbEntity
  8
Layer 1
 62
   240
420
 15539236
370
    18
100
AcDbVertex
100
AcDb2dVertex
 10
245.6310078357747
 20
-451.2640205628413
 30
0.0
  0
VERTEX
  5
AE
330
A9
100
AcDbEntity
  8
Layer 1
 62
   240
420
 15539236
370
    18
100
AcDbVertex
100
AcDb2dVertex
 10
248.0289238976438
 20
-447.9480312314499
 30
0.0
  0
SEQEND
  5
AF
330
A9
100
AcDbEntity
  8
Layer 1
 62
   240
420
 15539236
370
    18
  0
SPLINE
  5
B0
330
41
100
AcDbEntity
  8
Layer 1
 62
   240
420
 15539236
370
    18
100
AcDbSpline
210
0.0
220
0.0
230
1.0
 70
    11
 71
     3
 72
    44
 73
    40
 74
     0
 42
0.0000000001
 43
0.0000000001
 12
1.0
 22
0.0
 32
0.0
 13
1.0
 23
0.0
 33
0.0
 40
0.0
 40
0.0
 40
0.0
 40
0.0
 40
1.0
 40
1.0
 40
1.0
 40
2.0
 40
2.0
 40
2.0
 40
3.0
 40
3.0
 40
3.0
 40
4.0
 40
4.0
 40
4.0
 40
5.0
 40
5.0
 40
5.0
 40
6.0
 40
6.0
 40
6.0
 40
7.0
 40
7.0
 40
7.0
 40
8.0
 40
8.0
 40
8.0
 40
9.0
 40
9.0
 40
9.0
 40
10.0
 40
10.0
 40
10.0
 40
11.0
 40
11.0
 40
11.0
 40
12.0
 40
12.0
 40
12.0
 40
13.0
 40
13.0
 40
13.0
 40
13.0
 10
250.4733143612575
 20
-437.3995650463312
 30
0.0
 10
250.4733143612575
 20
-437.3995650463312
 30
0.0
 10
244.7585936276155
 20
-438.3172306456636
 30
0.0
 10
244.7585936276155
 20
-438.3172306456636
 30
0.0
 10
244.7585936276155
 20
-438.3172306456636
 30
0.0
 10
249.8088119503664
 20
-431.3358786294248
 30
0.0
 10
249.8088119503664
 20
-431.3358786294248
 30
0.0
 10
251.0595440955258
 20
-431.1173674071943
 30
0.0
 10
252.9201508460137
 20
-430.8103917535755
 30
0.0
 10
255.393893563356
 20
-430.412505647424
 30
0.0
 10
255.393893563356
 20
-430.412505647424
 30
0.0
 10
258.9716071571966
 20
-433.000396018173
 30
0.0
 10
258.9716071571966
 20
-433.000396018173
 30
0.0
 10
258.9716071571966
 20
-433.000396018173
 30
0.0
 10
259.9214787015953
 20
-438.9156904856536
 30
0.0
 10
259.9214787015953
 20
-438.9156904856536
 30
0.0
 10
259.9214787015953
 20
-438.9156904856536
 30
0.0
 10
253.1142018567989
 20
-433.9926652624072
 30
0.0
 10
253.1142018567989
 20
-433.9926652624072
 30
0.0
 10
253.1142018567989
 20
-433.9926652624072
 30
0.0
 10
250.7154704545501
 20
-437.3090622639902
 30
0.0
 10
250.7154704545501
 20
-437.3090622639902
 30
0.0
 10
250.7154704545501
 20
-437.3090622639902
 30
0.0
 10
254.0909796337874
 20
-439.7497836958846
 30
0.0
 10
254.0909796337874
 20
-439.7497836958846
 30
0.0
 10
256.3217509174574
 20
-441.3629346406015
 30
0.0
 10
257.4143070286118
 20
-442.1978431912139
 30
0.0
 10
257.372724669156
 20
-442.2561400284885
 30
0.0
 10
257.3164661828378
 20
-442.3335973647281
 30
0.0
 10
256.3706713403444
 20
-442.5199026418904
 30
0.0
 10
254.5312634397742
 20
-442.8154635301689
 30
0.0
 10
254.5312634397742
 20
-442.8154635301689
 30
0.0
 10
251.7248618467929
 20
-443.2663467611146
 30
0.0
 10
251.7248618467929
 20
-443.2663467611146
 30
0.0
 10
251.7248618467929
 20
-443.2663467611146
 30
0.0
 10
248.1169806588405
 20
-440.6576652106396
 30
0.0
 10
248.1169806588405
 20
-440.6576652106396
 30
0.0
 10
248.1169806588405
 20
-440.6576652106396
 30
0.0
 10
250.4733143612575
 20
-437.3995650463312
 30
0.0
 10
250.4733143612575
 20
-437.3995650463312
 30
0.0
  0
SPLINE
  5
B1
330
41
100
AcDbEntity
  8
Layer 1
 62
   240
420
 15539236
370
    18
100
AcDbSpline
210
0.0
220
0.0
230
1.0
 70
    11
 71
     3
 72
    47
 73
    43
 74
     0
 42
0.0000000001
 43
0.0000000001
 12
1.0
 22
0.0
 32
0.0
 13
1.0
 23
0.0
 33
0.0
 40
0.0
 40
0.0
 40
0.0
 40
0.0
 40
1.0
 40
1.0
 40
1.0
 40
2.0
 40
2.0
 40
2.0
 40
3.0
 40
3.0
 40
3.0
 40
4.0
 40
4.0
 40
4.0
 40
5.0
 40
5.0
 40
5.0
 40
6.0
 40
6.0
 40
6.0
 40
7.0
 40
7.0
 40
7.0
 40
8.0
 40
8.0
 40
8.0
 40
9.0
 40
9.0
 40
9.0
 40
10.0
 40
10.0
 40
10.0
 40
11.0
 40
11.0
 40
11.0
 40
12.0
 40
12.0
 40
12.0
 40
13.0
 40
13.0
 40
13.0
 40
14.0
 40
14.0
 40
14.0
 40
14.0
 10
257.7918096252251
 20
-420.0511600798509
 30
0.0
 10
257.7918096252251
 20
-420.0511600798509
 30
0.0
 10
251.0432372878968
 20
-415.1705325564399
 30
0.0
 10
251.0432372878968
 20
-415.1705325564399
 30
0.0
 10
251.0432372878968
 20
-415.1705325564399
 30
0.0
 10
253.4207698402279
 20
-411.8830801384011
 30
0.0
 10
253.4207698402279
 20
-411.8830801384011
 30
0.0
 10
253.4207698402279
 20
-411.8830801384011
 30
0.0
 10
255.9646318303785
 20
-413.634023607583
 30
0.0
 10
255.9646318303785
 20
-413.634023607583
 30
0.0
 10
257.3637559249619
 20
-414.5573965895837
 30
0.0
 10
259.6630158006737
 20
-416.1762549169689
 30
0.0
 10
262.8640421382806
 20
-418.4905985897385
 30
0.0
 10
262.8640421382806
 20
-418.4905985897385
 30
0.0
 10
267.1983916061108
 20
-421.6255823564461
 30
0.0
 10
267.1983916061108
 20
-421.6255823564461
 30
0.0
 10
267.1983916061108
 20
-421.6255823564461
 30
0.0
 10
268.1238029390661
 20
-427.3904465235482
 30
0.0
 10
268.1238029390661
 20
-427.3904465235482
 30
0.0
 10
268.1238029390661
 20
-427.3904465235482
 30
0.0
 10
265.6410914775261
 20
-430.8230295294888
 30
0.0
 10
265.6410914775261
 20
-430.8230295294888
 30
0.0
 10
263.0743999566948
 20
-431.2698360585291
 30
0.0
 10
261.1453046141651
 20
-431.588634147678
 30
0.0
 10
259.855436130696
 20
-431.7782007863661
 30
0.0
 10
259.855436130696
 20
-431.7782007863661
 30
0.0
 10
256.2190180293946
 20
-429.1483203859734
 30
0.0
 10
256.2190180293946
 20
-429.1483203859734
 30
0.0
 10
256.2190180293946
 20
-429.1483203859734
 30
0.0
 10
258.4709881629824
 20
-426.0357584797548
 30
0.0
 10
258.4709881629824
 20
-426.0357584797548
 30
0.0
 10
258.4709881629824
 20
-426.0357584797548
 30
0.0
 10
255.7632427561584
 20
-426.4707425732631
 30
0.0
 10
255.7632427561584
 20
-426.4707425732631
 30
0.0
 10
253.9915081072504
 20
-426.7557040365828
 30
0.0
 10
253.0775115396355
 20
-426.8759667428476
 30
0.0
 10
253.0196223725507
 20
-426.8339767132038
 30
0.0
 10
252.9609178650862
 20
-426.7919866835582
 30
0.0
 10
253.7452753120488
 20
-425.6464334476095
 30
0.0
 10
255.3726947134382
 20
-423.3965016649745
 30
0.0
 10
255.3726947134382
 20
-423.3965016649745
 30
0.0
 10
257.7918096252251
 20
-420.0511600798509
 30
0.0
 10
257.7918096252251
 20
-420.0511600798509
 30
0.0
  0
POLYLINE
  5
B2
330
41
100
AcDbEntity
  8
Layer 1
 62
   240
420
 15539236
370
    18
100
AcDb2dPolyline
 66
     1
 10
0.0
 20
0.0
 30
0.0
  0
VERTEX
  5
B3
330
B2
100
AcDbEntity
  8
Layer 1
 62
   240
420
 15539236
370
    18
100
AcDbVertex
100
AcDb2dVertex
 10
264.5118450492046
 20
-424.910996423534
 30
0.0
  0
VERTEX
  5
B4
330
B2
100
AcDbEntity
  8
Layer 1
 62
   240
420
 15539236
370
    18
100
AcDbVertex
100
AcDb2dVertex
 10
261.2243926311676
 20
-422.5338715413909
 30
0.0
  0
VERTEX
  5
B5
330
B2
100
AcDbEntity
  8
Layer 1
 62
   240
420
 15539236
370
    18
100
AcDbVertex
100
AcDb2dVertex
 10
258.8468600788328
 20
-425.8213239594315
 30
0.0
  0
VERTEX
  5
B6
330
B2
100
AcDbEntity
  8
Layer 1
 62
   240
420
 15539236
370
    18
100
AcDbVertex
100
AcDb2dVertex
 10
262.1343124968735
 20
-428.1984488415728
 30
0.0
  0
VERTEX
  5
B7
330
B2
100
AcDbEntity
  8
Layer 1
 62
   240
420
 15539236
370
    18
100
AcDbVertex
100
AcDb2dVertex
 10
264.5118450492046
 20
-424.910996423534
 30
0.0
  0
SEQEND
  5
B8
330
B2
100
AcDbEntity
  8
Layer 1
 62
   240
420
 15539236
370
    18
  0
ENDBLK
  5
44
330
41
100
AcDbEntity
  8
0
100
AcDbBlockEnd
  0
ENDSEC
  0
SECTION
  2
ENTITIES
  0
INSERT
  5
42
330
1F
100
AcDbEntity
  8
Layer 1
100
AcDbBlockReference
  2
block 2
 10
0.0
 20
0.0
 30
0.0
  0
POLYLINE
  5
B9
330
1F
100
AcDbEntity
  8
Layer 1
 62
   240
420
 15539236
370
    35
100
AcDb2dPolyline
 66
     1
 10
0.0
 20
0.0
 30
0.0
  0
VERTEX
  5
BA
330
B9
100
AcDbEntity
  8
Layer 1
 62
   240
420
 15539236
370
    35
100
AcDbVertex
100
AcDb2dVertex
 10
55.0748803271963
 20
-290.4528858395761
 30
0.0
  0
VERTEX
  5
BB
330
B9
100
AcDbEntity
  8
Layer 1
 62
   240
420
 15539236
370
    35
100
AcDbVertex
100
AcDb2dVertex
 10
-30.39195590922827
 20
-405.7088191142575
 30
0.0
  0
VERTEX
  5
BC
330
B9
100
AcDbEntity
  8
Layer 1
 62
   240
420
 15539236
370
    35
100
AcDbVertex
100
AcDb2dVertex
 10
140.5417165636227
 20
-640.1903903129551
 30
0.0
  0
VERTEX
  5
BD
330
B9
100
AcDbEntity
  8
Layer 1
 62
   240
420
 15539236
370
    35
100
AcDbVertex
100
AcDb2dVertex
 10
311.4753890364682
 20
-405.7088191142575
 30
0.0
  0
VERTEX
  5
BE
330
B9
100
AcDbEntity
  8
Layer 1
 62
   240
420
 15539236
370
    35
100
AcDbVertex
100
AcDb2dVertex
 10
226.0085528000473
 20
-290.4528858395761
 30
0.0
  0
VERTEX
  5
BF
330
B9
100
AcDbEntity
  8
Layer 1
 62
   240
420
 15539236
370
    35
100
AcDbVertex
100
AcDb2dVertex
 10
55.0748803271963
 20
-290.4528858395761
 30
0.0
  0
SEQEND
  5
C0
330
B9
100
AcDbEntity
  8
Layer 1
 62
   240
420
 15539236
370
    35
  0
ENDSEC
  0
SECTION
  2
OBJECTS
  0
DICTIONARY
  5
C
330
0
100
AcDbDictionary
281
     1
  3
ACAD_GROUP
350
D
  3
ACAD_LAYOUT
350
1A
  3
ACAD_MATERIAL
350
3B
  3
ACAD_MLEADERSTYLE
350
C2
  3
ACAD_MLINESTYLE
350
17
  3
ACAD_PLOTSETTINGS
350
19
  3
ACAD_PLOTSTYLENAME
350
E
  3
ACAD_TABLESTYLE
350
C1
  3
ACAD_VISUALSTYLE
350
2A
  0
SUN
  5
3F
330
29
100
AcDbSun
 90
        1
290
     0
 63
     7
421
 16777215
 40
1.0
291
     1
 91
  2455826
 92
 54000000
292
     0
 70
     2
 71
   256
280
     1
  0
DICTIONARY
  5
D
102
{ACAD_REACTORS
330
C
102
}
330
C
100
AcDbDictionary
281
     1
  0
DICTIONARY
  5
1A
102
{ACAD_REACTORS
330
C
102
}
330
C
100
AcDbDictionary
281
     1
  3
Layout1
350
1E
  3
Layout2
350
26
  3
Model
350
22
  0
DICTIONARY
  5
3B
102
{ACAD_REACTORS
330
C
102
}
330
C
100
AcDbDictionary
281
     1
  3
ByBlock
350
3D
  3
ByLayer
350
3C
  3
Global
350
3E
  0
DICTIONARY
  5
C2
102
{ACAD_REACTORS
330
C
102
}
330
C
100
AcDbDictionary
281
     1
  0
DICTIONARY
  5
17
102
{ACAD_REACTORS
330
C
102
}
330
C
100
AcDbDictionary
281
     1
  3
Standard
350
18
  0
DICTIONARY
  5
19
102
{ACAD_REACTORS
330
C
102
}
330
C
100
AcDbDictionary
281
     1
  0
ACDBDICTIONARYWDFLT
  5
E
102
{ACAD_REACTORS
330
C
102
}
330
C
100
AcDbDictionary
281
     1
  3
Normal
350
F
100
AcDbDictionaryWithDefault
340
F
  0
DICTIONARY
  5
C1
102
{ACAD_REACTORS
330
C
102
}
330
C
100
AcDbDictionary
281
     1
  0
DICTIONARY
  5
2A
102
{ACAD_REACTORS
330
C
102
}
330
C
100
AcDbDictionary
281
     1
  3
2dWireframe
350
2F
  3
3D Hidden
350
31
  3
3dWireframe
350
30
  3
Basic
350
32
  3
Brighten
350
36
  3
ColorChange
350
3A
  3
Conceptual
350
34
  3
Dim
350
35
  3
Facepattern
350
39
  3
Flat
350
2B
  3
FlatWithEdges
350
2C
  3
Gouraud
350
2D
  3
GouraudWithEdges
350
2E
  3
Linepattern
350
38
  3
Realistic
350
33
  3
Thicken
350
37
  0
LAYOUT
  5
1E
102
{ACAD_REACTORS
330
1A
102
}
330
1A
100
AcDbPlotSettings
  1

  2
none_device
  4

  6

 40
0.0
 41
0.0
 42
0.0
 43
0.0
 44
0.0
 45
0.0
 46
0.0
 47
0.0
 48
0.0
 49
0.0
140
0.0
141
0.0
142
1.0
143
1.0
 70
   688
 72
     0
 73
     0
 74
     5
  7

 75
    16
 76
     0
 77
     2
 78
   300
147
1.0
148
0.0
149
0.0
100
AcDbLayout
  1
Layout1
 70
     1
 71
     1
 10
0.0
 20
0.0
 11
12.0
 21
9.0
 12
0.0
 22
0.0
 32
0.0
 14
1.000000000000000E+20
 24
1.000000000000000E+20
 34
1.000000000000000E+20
 15
-1.000000000000000E+20
 25
-1.000000000000000E+20
 35
-1.000000000000000E+20
146
0.0
 13
0.0
 23
0.0
 33
0.0
 16
1.0
 26
0.0
 36
0.0
 17
0.0
 27
1.0
 37
0.0
 76
     0
330
1B
  0
LAYOUT
  5
26
102
{ACAD_REACTORS
330
1A
102
}
330
1A
100
AcDbPlotSettings
  1

  2
none_device
  4

  6

 40
0.0
 41
0.0
 42
0.0
 43
0.0
 44
0.0
 45
0.0
 46
0.0
 47
0.0
 48
0.0
 49
0.0
140
0.0
141
0.0
142
1.0
143
1.0
 70
   688
 72
     0
 73
     0
 74
     5
  7

 75
    16
 76
     0
 77
     2
 78
   300
147
1.0
148
0.0
149
0.0
100
AcDbLayout
  1
Layout2
 70
     1
 71
     2
 10
0.0
 20
0.0
 11
0.0
 21
0.0
 12
0.0
 22
0.0
 32
0.0
 14
0.0
 24
0.0
 34
0.0
 15
0.0
 25
0.0
 35
0.0
146
0.0
 13
0.0
 23
0.0
 33
0.0
 16
1.0
 26
0.0
 36
0.0
 17
0.0
 27
1.0
 37
0.0
 76
     0
330
23
  0
LAYOUT
  5
22
102
{ACAD_REACTORS
330
1A
102
}
330
1A
100
AcDbPlotSettings
  1

  2
none_device
  4

  6

 40
0.0
 41
0.0
 42
0.0
 43
0.0
 44
0.0
 45
0.0
 46
0.0
 47
0.0
 48
0.0
 49
0.0
140
0.0
141
0.0
142
1.0
143
1.0
 70
  1712
 72
     0
 73
     0
 74
     0
  7

 75
     0
 76
     0
 77
     2
 78
   300
147
1.0
148
0.0
149
0.0
100
AcDbLayout
  1
Model
 70
     1
 71
     0
 10
0.0
 20
0.0
 11
12.0
 21
9.0
 12
0.0
 22
0.0
 32
0.0
 14
1.000000000000000E+20
 24
1.000000000000000E+20
 34
1.000000000000000E+20
 15
-1.000000000000000E+20
 25
-1.000000000000000E+20
 35
-1.000000000000000E+20
146
0.0
 13
0.0
 23
0.0
 33
0.0
 16
1.0
 26
0.0
 36
0.0
 17
0.0
 27
1.0
 37
0.0
 76
     0
330
1F
331
29
  0
MATERIAL
  5
3D
102
{ACAD_REACTORS
330
3B
102
}
330
3B
100
AcDbMaterial
  1
ByBlock
 72
     1
 94
      127
  0
MATERIAL
  5
3C
102
{ACAD_REACTORS
330
3B
102
}
330
3B
100
AcDbMaterial
  1
ByLayer
 72
     1
 94
      127
  0
MATERIAL
  5
3E
102
{ACAD_REACTORS
330
3B
102
}
330
3B
100
AcDbMaterial
  1
Global
 72
     1
 94
      127
  0
MLINESTYLE
  5
18
102
{ACAD_REACTORS
330
17
102
}
330
17
100
AcDbMlineStyle
  2
Standard
 70
     0
  3

 62
   256
 51
90.0
 52
90.0
 71
     2
 49
0.5
 62
   256
  6
BYLAYER
 49
-0.5
 62
   256
  6
BYLAYER
  0
ACDBPLACEHOLDER
  5
F
102
{ACAD_REACTORS
330
E
102
}
330
E
  0
VISUALSTYLE
  5
2F
102
{ACAD_REACTORS
330
2A
102
}
330
2A
100
AcDbVisualStyle
  2
2dWireframe
 70
     4
177
     2
291
     0
 71
     0
176
     1
 72
     2
176
     1
 73
     0
176
     1
 90
        0
176
     1
 40
-0.6
176
     1
 41
-30.0
176
     1
 62
     5
 63
     7
421
 16777215
176
     1
 74
     1
176
     1
 91
        4
176
     1
 64
     7
176
     1
 65
   257
176
     1
 75
     1
176
     1
175
     1
176
     1
 42
1.0
176
     1
 92
        0
176
     1
 66
   257
176
     1
 43
1.0
176
     1
 76
     1
176
     1
 77
     6
176
     1
 78
     2
176
     1
 67
     7
176
     1
 79
     5
176
     1
170
     0
176
     1
171
     0
176
     1
290
     0
176
     1
 93
        1
176
     1
 44
0.0
176
     1
173
     0
176
     1
  0
VISUALSTYLE
  5
31
102
{ACAD_REACTORS
330
2A
102
}
330
2A
100
AcDbVisualStyle
  2
3D Hidden
 70
     6
177
     2
291
     0
 71
     1
176
     1
 72
     2
176
     1
 73
     2
176
     1
 90
        0
176
     1
 40
-0.6
176
     1
 41
-30.0
176
     1
 62
     5
 63
     7
421
 16777215
176
     1
 74
     2
176
     1
 91
        2
176
     1
 64
     7
176
     1
 65
   257
176
     1
 75
     2
176
     1
175
     1
176
     1
 42
40.0
176
     1
 92
        0
176
     1
 66
   257
176
     1
 43
1.0
176
     1
 76
     1
176
     1
 77
     6
176
     1
 78
     2
176
     1
 67
     7
176
     1
 79
     3
176
     1
170
     0
176
     1
171
     0
176
     1
290
     0
176
     1
 93
        1
176
     1
 44
0.0
176
     1
173
     0
176
     1
  0
VISUALSTYLE
  5
30
102
{ACAD_REACTORS
330
2A
102
}
330
2A
100
AcDbVisualStyle
  2
3dWireframe
 70
     5
177
     2
291
     0
 71
     0
176
     1
 72
     2
176
     1
 73
     0
176
     1
 90
        0
176
     1
 40
-0.6
176
     1
 41
-30.0
176
     1
 62
     5
 63
     7
421
 16777215
176
     1
 74
     1
176
     1
 91
        4
176
     1
 64
     7
176
     1
 65
   257
176
     1
 75
     1
176
     1
175
     1
176
     1
 42
1.0
176
     1
 92
        0
176
     1
 66
   257
176
     1
 43
1.0
176
     1
 76
     1
176
     1
 77
     6
176
     1
 78
     2
176
     1
 67
     7
176
     1
 79
     5
176
     1
170
     0
176
     1
171
     0
176
     1
290
     0
176
     1
 93
        1
176
     1
 44
0.0
176
     1
173
     0
176
     1
  0
VISUALSTYLE
  5
32
102
{ACAD_REACTORS
330
2A
102
}
330
2A
100
AcDbVisualStyle
  2
Basic
 70
     7
177
     2
291
     1
 71
     1
176
     1
 72
     0
176
     1
 73
     1
176
     1
 90
        0
176
     1
 40
-0.6
176
     1
 41
-30.0
176
     1
 62
     5
 63
     7
421
 16777215
176
     1
 74
     0
176
     1
 91
        4
176
     1
 64
     7
176
     1
 65
   257
176
     1
 75
     1
176
     1
175
     1
176
     1
 42
1.0
176
     1
 92
        8
176
     1
 66
     7
176
     1
 43
1.0
176
     1
 76
     1
176
     1
 77
     6
176
     1
 78
     2
176
     1
 67
     7
176
     1
 79
     5
176
     1
170
     0
176
     1
171
     0
176
     1
290
     0
176
     1
 93
        1
176
     1
 44
0.0
176
     1
173
     0
176
     1
  0
VISUALSTYLE
  5
36
102
{ACAD_REACTORS
330
2A
102
}
330
2A
100
AcDbVisualStyle
  2
Brighten
 70
    12
177
     2
291
     1
 71
     2
176
     1
 72
     2
176
     1
 73
     0
176
     1
 90
        0
176
     1
 40
-0.6
176
     1
 41
-30.0
176
     1
 62
     5
 63
     7
421
 16777215
176
     1
 74
     1
176
     1
 91
        4
176
     1
 64
     7
176
     1
 65
   257
176
     1
 75
     1
176
     1
175
     1
176
     1
 42
1.0
176
     1
 92
        8
176
     1
 66
     7
176
     1
 43
1.0
176
     1
 76
     1
176
     1
 77
     6
176
     1
 78
     2
176
     1
 67
     7
176
     1
 79
     5
176
     1
170
     0
176
     1
171
     0
176
     1
290
     0
176
     1
 93
        1
176
     1
 44
50.0
176
     1
173
     0
176
     1
  0
VISUALSTYLE
  5
3A
102
{ACAD_REACTORS
330
2A
102
}
330
2A
100
AcDbVisualStyle
  2
ColorChange
 70
    16
177
     2
291
     1
 71
     2
176
     1
 72
     2
176
     1
 73
     3
176
     1
 90
        0
176
     1
 40
-0.6
176
     1
 41
-30.0
176
     1
 62
     5
 63
     8
421
  8421504
176
     1
 74
     1
176
     1
 91
        4
176
     1
 64
     7
176
     1
 65
   257
176
     1
 75
     1
176
     1
175
     1
176
     1
 42
1.0
176
     1
 92
        8
176
     1
 66
     8
424
  8421504
176
     1
 43
1.0
176
     1
 76
     1
176
     1
 77
     6
176
     1
 78
     2
176
     1
 67
     7
176
     1
 79
     5
176
     1
170
     0
176
     1
171
     0
176
     1
290
     0
176
     1
 93
        1
176
     1
 44
0.0
176
     1
173
     0
176
     1
  0
VISUALSTYLE
  5
34
102
{ACAD_REACTORS
330
2A
102
}
330
2A
100
AcDbVisualStyle
  2
Conceptual
 70
     9
177
     2
291
     0
 71
     3
176
     1
 72
     2
176
     1
 73
     0
176
     1
 90
        0
176
     1
 40
-0.6
176
     1
 41
-30.0
176
     1
 62
     5
 63
     7
421
 16777215
176
     1
 74
     2
176
     1
 91
        2
176
     1
 64
     7
176
     1
 65
   257
176
     1
 75
     1
176
     1
175
     1
176
     1
 42
40.0
176
     1
 92
        8
176
     1
 66
     7
176
     1
 43
1.0
176
     1
 76
     1
176
     1
 77
     6
176
     1
 78
     2
176
     1
 67
     7
176
     1
 79
     3
176
     1
170
     0
176
     1
171
     0
176
     1
290
     0
176
     1
 93
        1
176
     1
 44
0.0
176
     1
173
     0
176
     1
  0
VISUALSTYLE
  5
35
102
{ACAD_REACTORS
330
2A
102
}
330
2A
100
AcDbVisualStyle
  2
Dim
 70
    11
177
     2
291
     1
 71
     2
176
     1
 72
     2
176
     1
 73
     0
176
     1
 90
        0
176
     1
 40
-0.6
176
     1
 41
-30.0
176
     1
 62
     5
 63
     7
421
 16777215
176
     1
 74
     1
176
     1
 91
        4
176
     1
 64
     7
176
     1
 65
   257
176
     1
 75
     1
176
     1
175
     1
176
     1
 42
1.0
176
     1
 92
        8
176
     1
 66
     7
176
     1
 43
1.0
176
     1
 76
     1
176
     1
 77
     6
176
     1
 78
     2
176
     1
 67
     7
176
     1
 79
     5
176
     1
170
     0
176
     1
171
     0
176
     1
290
     0
176
     1
 93
        1
176
     1
 44
-50.0
176
     1
173
     0
176
     1
  0
VISUALSTYLE
  5
39
102
{ACAD_REACTORS
330
2A
102
}
330
2A
100
AcDbVisualStyle
  2
Facepattern
 70
    15
177
     2
291
     1
 71
     2
176
     1
 72
     2
176
     1
 73
     0
176
     1
 90
        0
176
     1
 40
-0.6
176
     1
 41
-30.0
176
     1
 62
     5
 63
     7
421
 16777215
176
     1
 74
     1
176
     1
 91
        4
176
     1
 64
     7
176
     1
 65
   257
176
     1
 75
     1
176
     1
175
     1
176
     1
 42
1.0
176
     1
 92
        8
176
     1
 66
     7
176
     1
 43
1.0
176
     1
 76
     1
176
     1
 77
     6
176
     1
 78
     2
176
     1
 67
     7
176
     1
 79
     5
176
     1
170
     0
176
     1
171
     0
176
     1
290
     0
176
     1
 93
        1
176
     1
 44
0.0
176
     1
173
     0
176
     1
  0
VISUALSTYLE
  5
2B
102
{ACAD_REACTORS
330
2A
102
}
330
2A
100
AcDbVisualStyle
  2
Flat
 70
     0
177
     2
291
     1
 71
     2
176
     1
 72
     1
176
     1
 73
     1
176
     1
 90
        2
176
     1
 40
-0.6
176
     1
 41
30.0
176
     1
 62
     5
 63
     7
421
 16777215
176
     1
 74
     0
176
     1
 91
        4
176
     1
 64
     7
176
     1
 65
   257
176
     1
 75
     1
176
     1
175
     1
176
     1
 42
1.0
176
     1
 92
        8
176
     1
 66
     7
176
     1
 43
1.0
176
     1
 76
     1
176
     1
 77
     6
176
     1
 78
     2
176
     1
 67
     7
176
     1
 79
     5
176
     1
170
     0
176
     1
171
     0
176
     1
290
     0
176
     1
 93
       13
176
     1
 44
0.0
176
     1
173
     0
176
     1
  0
VISUALSTYLE
  5
2C
102
{ACAD_REACTORS
330
2A
102
}
330
2A
100
AcDbVisualStyle
  2
FlatWithEdges
 70
     1
177
     2
291
     1
 71
     2
176
     1
 72
     1
176
     1
 73
     1
176
     1
 90
        2
176
     1
 40
-0.6
176
     1
 41
30.0
176
     1
 62
     5
 63
     7
421
 16777215
176
     1
 74
     1
176
     1
 91
        4
176
     1
 64
     7
176
     1
 65
   257
176
     1
 75
     1
176
     1
175
     1
176
     1
 42
1.0
176
     1
 92
        0
176
     1
 66
   257
176
     1
 43
1.0
176
     1
 76
     1
176
     1
 77
     6
176
     1
 78
     2
176
     1
 67
     7
176
     1
 79
     5
176
     1
170
     0
176
     1
171
     0
176
     1
290
     0
176
     1
 93
       13
176
     1
 44
0.0
176
     1
173
     0
176
     1
  0
VISUALSTYLE
  5
2D
102
{ACAD_REACTORS
330
2A
102
}
330
2A
100
AcDbVisualStyle
  2
Gouraud
 70
     2
177
     2
291
     1
 71
     2
176
     1
 72
     2
176
     1
 73
     1
176
     1
 90
        2
176
     1
 40
-0.6
176
     1
 41
30.0
176
     1
 62
     5
 63
     7
421
 16777215
176
     1
 74
     0
176
     1
 91
        4
176
     1
 64
     7
176
     1
 65
   257
176
     1
 75
     1
176
     1
175
     1
176
     1
 42
1.0
176
     1
 92
        0
176
     1
 66
     7
176
     1
 43
1.0
176
     1
 76
     1
176
     1
 77
     6
176
     1
 78
     2
176
     1
 67
     7
176
     1
 79
     5
176
     1
170
     0
176
     1
171
     0
176
     1
290
     0
176
     1
 93
       13
176
     1
 44
0.0
176
     1
173
     0
176
     1
  0
VISUALSTYLE
  5
2E
102
{ACAD_REACTORS
330
2A
102
}
330
2A
100
AcDbVisualStyle
  2
GouraudWithEdges
 70
     3
177
     2
291
     1
 71
     2
176
     1
 72
     2
176
     1
 73
     1
176
     1
 90
        2
176
     1
 40
-0.6
176
     1
 41
30.0
176
     1
 62
     5
 63
     7
421
 16777215
176
     1
 74
     1
176
     1
 91
        4
176
     1
 64
     7
176
     1
 65
   257
176
     1
 75
     1
176
     1
175
     1
176
     1
 42
1.0
176
     1
 92
        0
176
     1
 66
   257
176
     1
 43
1.0
176
     1
 76
     1
176
     1
 77
     6
176
     1
 78
     2
176
     1
 67
     7
176
     1
 79
     5
176
     1
170
     0
176
     1
171
     0
176
     1
290
     0
176
     1
 93
       13
176
     1
 44
0.0
176
     1
173
     0
176
     1
  0
VISUALSTYLE
  5
38
102
{ACAD_REACTORS
330
2A
102
}
330
2A
100
AcDbVisualStyle
  2
Linepattern
 70
    14
177
     2
291
     1
 71
     2
176
     1
 72
     2
176
     1
 73
     0
176
     1
 90
        0
176
     1
 40
-0.6
176
     1
 41
-30.0
176
     1
 62
     5
 63
     7
421
 16777215
176
     1
 74
     1
176
     1
 91
        4
176
     1
 64
     7
176
     1
 65
   257
176
     1
 75
     7
176
     1
175
     7
176
     1
 42
1.0
176
     1
 92
        8
176
     1
 66
     7
176
     1
 43
1.0
176
     1
 76
     1
176
     1
 77
     6
176
     1
 78
     2
176
     1
 67
     7
176
     1
 79
     5
176
     1
170
     0
176
     1
171
     0
176
     1
290
     0
176
     1
 93
        1
176
     1
 44
0.0
176
     1
173
     0
176
     1
  0
VISUALSTYLE
  5
33
102
{ACAD_REACTORS
330
2A
102
}
330
2A
100
AcDbVisualStyle
  2
Realistic
 70
     8
177
     2
291
     0
 71
     2
176
     1
 72
     2
176
     1
 73
     0
176
     1
 90
        0
176
     1
 40
-0.6
176
     1
 41
-30.0
176
     1
 62
     5
 63
     7
421
 16777215
176
     1
 74
     1
176
     1
 91
        0
176
     1
 64
     7
176
     1
 65
   257
176
     1
 75
     1
176
     1
175
     1
176
     1
 42
1.0
176
     1
 92
        8
176
     1
 66
     8
424
  7895160
176
     1
 43
1.0
176
     1
 76
     1
176
     1
 77
     6
176
     1
 78
     2
176
     1
 67
     7
176
     1
 79
     5
176
     1
170
     0
176
     1
171
     0
176
     1
290
     0
176
     1
 93
       13
176
     1
 44
0.0
176
     1
173
     0
176
     1
  0
VISUALSTYLE
  5
37
102
{ACAD_REACTORS
330
2A
102
}
330
2A
100
AcDbVisualStyle
  2
Thicken
 70
    13
177
     2
291
     1
 71
     2
176
     1
 72
     2
176
     1
 73
     0
176
     1
 90
        0
176
     1
 40
-0.6
176
     1
 41
-30.0
176
     1
 62
     5
 63
     7
421
 16777215
176
     1
 74
     1
176
     1
 91
        4
176
     1
 64
     7
176
     1
 65
   257
176
     1
 75
     1
176
     1
175
     1
176
     1
 42
1.0
176
     1
 92
       12
176
     1
 66
     7
176
     1
 43
1.0
176
     1
 76
     1
176
     1
 77
     6
176
     1
 78
     2
176
     1
 67
     7
176
     1
 79
     5
176
     1
170
     0
176
     1
171
     0
176
     1
290
     0
176
     1
 93
        1
176
     1
 44
0.0
176
     1
173
     0
176
     1
  0
ENDSEC
  0
EOF
